<svg width="41" height="24" viewBox="0 0 41 24" fill="none" xmlns="http://www.w3.org/2000/svg">
<path d="M8.2218 16.1785V14.9716C8.6207 14.5795 8.98918 14.2144 9.32723 13.8763C9.46921 13.7344 9.61457 13.589 9.76331 13.4403C9.91206 13.2915 10.0507 13.1529 10.1791 13.0245C10.3076 12.896 10.4225 12.7811 10.5239 12.6796C10.6253 12.5715 10.7031 12.487 10.7572 12.4261C10.8654 12.2976 10.96 12.1827 11.0411 12.0813C11.129 11.9799 11.1967 11.8818 11.244 11.7872C11.2981 11.6858 11.3386 11.5877 11.3657 11.4931C11.3927 11.3917 11.4062 11.2835 11.4062 11.1686C11.4062 10.9454 11.3183 10.7528 11.1426 10.5905C10.9668 10.4215 10.7268 10.337 10.4225 10.337C10.1183 10.337 9.88163 10.4248 9.71261 10.6006C9.54358 10.7697 9.42864 10.9623 9.36779 11.1787L8.16095 10.6818C8.21504 10.4992 8.30293 10.3133 8.42463 10.124C8.54633 9.92791 8.70183 9.7555 8.89114 9.60676C9.08045 9.45126 9.30357 9.32618 9.56048 9.23152C9.82416 9.13011 10.1183 9.0794 10.4428 9.0794C10.7944 9.0794 11.1121 9.13349 11.3961 9.24167C11.6801 9.34308 11.9201 9.48506 12.1161 9.66761C12.3122 9.85016 12.4643 10.0665 12.5725 10.3167C12.6807 10.5601 12.7348 10.8237 12.7348 11.1077C12.7348 11.5404 12.6266 11.9393 12.4103 12.3044C12.2007 12.6627 11.9437 12.9974 11.6395 13.3084L10.7673 14.1806C10.5375 14.4105 10.2772 14.6674 9.98643 14.9514L10.027 15.0122H12.8362V16.1785H8.2218Z" fill="white"/>
<path d="M16.7399 16.3407C16.2937 16.3407 15.8914 16.2495 15.5331 16.0669C15.1747 15.8776 14.8671 15.6207 14.6102 15.2962C14.36 14.9716 14.1673 14.5896 14.0321 14.1502C13.8969 13.7039 13.8293 13.2239 13.8293 12.7101C13.8293 12.1962 13.8969 11.7196 14.0321 11.2801C14.1673 10.8339 14.36 10.4485 14.6102 10.124C14.8671 9.79945 15.1747 9.54591 15.5331 9.36336C15.8914 9.17406 16.2937 9.0794 16.7399 9.0794C17.1861 9.0794 17.5884 9.17406 17.9467 9.36336C18.3051 9.54591 18.6093 9.79945 18.8595 10.124C19.1164 10.4485 19.3125 10.8339 19.4477 11.2801C19.5829 11.7196 19.6505 12.1962 19.6505 12.7101C19.6505 13.2239 19.5829 13.7039 19.4477 14.1502C19.3125 14.5896 19.1164 14.9716 18.8595 15.2962C18.6093 15.6207 18.3051 15.8776 17.9467 16.0669C17.5884 16.2495 17.1861 16.3407 16.7399 16.3407ZM16.7399 15.0832C16.9833 15.0832 17.203 15.0257 17.3991 14.9108C17.5952 14.7891 17.7608 14.6234 17.896 14.4138C18.038 14.1975 18.1428 13.944 18.2104 13.6532C18.2848 13.3625 18.322 13.0481 18.322 12.7101C18.322 12.3653 18.2848 12.0509 18.2104 11.7669C18.1428 11.4762 18.038 11.226 17.896 11.0164C17.7608 10.8001 17.5952 10.6344 17.3991 10.5195C17.203 10.3978 16.9833 10.337 16.7399 10.337C16.4897 10.337 16.2666 10.3978 16.0706 10.5195C15.8745 10.6344 15.7088 10.8001 15.5736 11.0164C15.4384 11.226 15.3336 11.4762 15.2592 11.7669C15.1916 12.0509 15.1578 12.3653 15.1578 12.7101C15.1578 13.0481 15.1916 13.3625 15.2592 13.6532C15.3336 13.944 15.4384 14.1975 15.5736 14.4138C15.7088 14.6234 15.8745 14.7891 16.0706 14.9108C16.2666 15.0257 16.4897 15.0832 16.7399 15.0832Z" fill="white"/>
<path d="M20.5667 16.1785V14.9716C20.9656 14.5795 21.3341 14.2144 21.6722 13.8763C21.8141 13.7344 21.9595 13.589 22.1083 13.4403C22.257 13.2915 22.3956 13.1529 22.5241 13.0245C22.6525 12.896 22.7675 12.7811 22.8689 12.6796C22.9703 12.5715 23.048 12.487 23.1021 12.4261C23.2103 12.2976 23.305 12.1827 23.3861 12.0813C23.474 11.9799 23.5416 11.8818 23.5889 11.7872C23.643 11.6858 23.6836 11.5877 23.7106 11.4931C23.7377 11.3917 23.7512 11.2835 23.7512 11.1686C23.7512 10.9454 23.6633 10.7528 23.4875 10.5905C23.3117 10.4215 23.0717 10.337 22.7675 10.337C22.4632 10.337 22.2266 10.4248 22.0575 10.6006C21.8885 10.7697 21.7736 10.9623 21.7127 11.1787L20.5059 10.6818C20.56 10.4992 20.6479 10.3133 20.7696 10.124C20.8913 9.92791 21.0468 9.7555 21.2361 9.60676C21.4254 9.45126 21.6485 9.32618 21.9054 9.23152C22.1691 9.13011 22.4632 9.0794 22.7877 9.0794C23.1393 9.0794 23.4571 9.13349 23.741 9.24167C24.025 9.34308 24.265 9.48506 24.4611 9.66761C24.6572 9.85016 24.8093 10.0665 24.9175 10.3167C25.0256 10.5601 25.0797 10.8237 25.0797 11.1077C25.0797 11.5404 24.9715 11.9393 24.7552 12.3044C24.5456 12.6627 24.2887 12.9974 23.9844 13.3084L23.1123 14.1806C22.8824 14.4105 22.6221 14.6674 22.3314 14.9514L22.3719 15.0122H25.1811V16.1785H20.5667Z" fill="white"/>
<path d="M28.598 16.3407C28.3344 16.3407 28.0707 16.3036 27.807 16.2292C27.5501 16.1548 27.3101 16.0399 27.087 15.8844C26.8638 15.7289 26.6678 15.5362 26.4987 15.3063C26.3365 15.0697 26.2148 14.7891 26.1337 14.4646L27.3405 13.998C27.4149 14.3361 27.5568 14.6065 27.7664 14.8094C27.9828 15.0122 28.2566 15.1136 28.5879 15.1136C28.7502 15.1136 28.8989 15.0866 29.0341 15.0325C29.1761 14.9716 29.2978 14.8905 29.3992 14.7891C29.5074 14.6877 29.5885 14.5694 29.6426 14.4341C29.7035 14.2921 29.7339 14.1366 29.7339 13.9676C29.7339 13.8054 29.7035 13.6566 29.6426 13.5214C29.5885 13.3794 29.5108 13.2577 29.4094 13.1563C29.308 13.0481 29.1863 12.967 29.0443 12.9129C28.9091 12.8521 28.7569 12.8216 28.5879 12.8216C28.3783 12.8216 28.1924 12.869 28.0301 12.9636C27.8679 13.0515 27.7293 13.1631 27.6143 13.2983L26.3263 12.7101L26.732 9.24167H30.6365V10.4079H27.8374L27.5737 12.0306L27.6549 12.0509C27.7901 11.9359 27.9557 11.8379 28.1518 11.7568C28.3479 11.6756 28.5845 11.6351 28.8617 11.6351C29.1524 11.6351 29.4297 11.6925 29.6933 11.8075C29.957 11.9156 30.1903 12.0712 30.3931 12.274C30.5959 12.4768 30.7582 12.7236 30.8799 13.0143C31.0016 13.2983 31.0624 13.616 31.0624 13.9676C31.0624 14.3124 31.0016 14.6302 30.8799 14.9209C30.7582 15.2116 30.5858 15.4618 30.3627 15.6714C30.1463 15.881 29.886 16.0466 29.5818 16.1683C29.2843 16.2833 28.9564 16.3407 28.598 16.3407Z" fill="white"/>
<path fill-rule="evenodd" clip-rule="evenodd" d="M2.25367 0H40.5661V21.4099H38.3125V23.6636H0V2.25367H2.25367V0ZM36.0588 4.50735H2.25367V21.4099H36.0588V4.50735Z" fill="white"/>
</svg>
