<svg width="269" height="36" viewBox="0 0 269 36" fill="none" xmlns="http://www.w3.org/2000/svg">
<path d="M67.02 32.8884C66.256 32.8884 65.5619 32.7084 64.9375 32.3485C64.3132 31.9886 63.821 31.4964 63.4611 30.8721C63.1085 30.2404 62.9322 29.5389 62.9322 28.7676C62.9322 27.9963 63.1085 27.2985 63.4611 26.6741C63.821 26.0424 64.3132 25.5466 64.9375 25.1867C65.5619 24.8268 66.256 24.6468 67.02 24.6468C67.6076 24.6468 68.1438 24.7607 68.6286 24.9884C69.1208 25.2087 69.5468 25.5246 69.9067 25.9359L69.2346 26.586C68.9335 26.2261 68.6029 25.9616 68.243 25.7927C67.8904 25.6237 67.4827 25.5393 67.02 25.5393C66.447 25.5393 65.9218 25.6752 65.4444 25.9469C64.9669 26.2114 64.5849 26.5897 64.2985 27.0818C64.0193 27.5666 63.8798 28.1285 63.8798 28.7676C63.8798 29.4067 64.0193 29.9723 64.2985 30.4644C64.5849 30.9492 64.9669 31.3275 65.4444 31.5993C65.9218 31.8637 66.447 31.9959 67.02 31.9959C67.9749 31.9959 68.7866 31.6029 69.455 30.817L70.1381 31.4781C69.7708 31.9115 69.3191 32.2567 68.7829 32.5138C68.2467 32.7635 67.659 32.8884 67.02 32.8884ZM71.1897 24.8231H72.1263V32.7121H71.1897V24.8231ZM76.0494 32.8884C75.4985 32.8884 75.0026 32.7562 74.5619 32.4917C74.1212 32.2273 73.776 31.8674 73.5262 31.412C73.2838 30.9565 73.1626 30.4534 73.1626 29.9025C73.1626 29.3516 73.2838 28.8484 73.5262 28.393C73.776 27.9376 74.1212 27.5776 74.5619 27.3132C75.0026 27.0488 75.4985 26.9165 76.0494 26.9165C76.6003 26.9165 77.0961 27.0488 77.5368 27.3132C77.9776 27.5776 78.3191 27.9376 78.5615 28.393C78.8113 28.8484 78.9361 29.3516 78.9361 29.9025C78.9361 30.4534 78.8113 30.9565 78.5615 31.412C78.3191 31.8674 77.9776 32.2273 77.5368 32.4917C77.0961 32.7562 76.6003 32.8884 76.0494 32.8884ZM76.0494 32.04C76.3946 32.04 76.7141 31.9555 77.008 31.7866C77.3091 31.6103 77.5478 31.3605 77.7241 31.0373C77.9078 30.7141 77.9996 30.3359 77.9996 29.9025C77.9996 29.4691 77.9078 29.0908 77.7241 28.7676C77.5478 28.4444 77.3091 28.1983 77.008 28.0294C76.7141 27.8531 76.3946 27.7649 76.0494 27.7649C75.7041 27.7649 75.3809 27.8531 75.0798 28.0294C74.7786 28.1983 74.5362 28.4444 74.3526 28.7676C74.1763 29.0908 74.0881 29.4691 74.0881 29.9025C74.0881 30.3359 74.1763 30.7141 74.3526 31.0373C74.5362 31.3605 74.7786 31.6103 75.0798 31.7866C75.3809 31.9555 75.7041 32.04 76.0494 32.04ZM82.0082 32.8884C81.3325 32.8884 80.8146 32.6901 80.4547 32.2934C80.1021 31.8968 79.9258 31.3422 79.9258 30.6297V27.0928H80.8623V30.4864C80.8623 31.0227 80.9835 31.4156 81.2259 31.6654C81.4683 31.9151 81.7952 32.04 82.2066 32.04C82.5224 32.04 82.8015 31.9555 83.0439 31.7866C83.2937 31.6176 83.4847 31.3973 83.6169 31.1255C83.7565 30.8537 83.8262 30.5672 83.8262 30.2661V27.0928H84.7628V32.7121H83.8703V31.8968H83.8262C83.672 32.1759 83.4259 32.4109 83.088 32.6019C82.7501 32.7929 82.3902 32.8884 82.0082 32.8884ZM88.4722 32.8884C87.9727 32.8884 87.5173 32.7599 87.106 32.5028C86.702 32.2457 86.3824 31.8931 86.1474 31.445C85.9123 30.9896 85.7948 30.4754 85.7948 29.9025C85.7948 29.3369 85.9123 28.8264 86.1474 28.3709C86.3824 27.9155 86.702 27.5593 87.106 27.3022C87.5173 27.0451 87.9727 26.9165 88.4722 26.9165C88.9056 26.9165 89.2912 27.0157 89.6291 27.214C89.967 27.405 90.2241 27.6437 90.4004 27.9302H90.4445L90.4004 27.1479V24.8231H91.3369V32.7121H90.4445V31.8857H90.4004C90.2241 32.1649 89.967 32.4036 89.6291 32.6019C89.2912 32.7929 88.9056 32.8884 88.4722 32.8884ZM88.5824 32.04C88.9129 32.04 89.2178 31.9519 89.4969 31.7756C89.7834 31.5993 90.0111 31.3495 90.18 31.0263C90.3563 30.7031 90.4445 30.3285 90.4445 29.9025C90.4445 29.4764 90.3563 29.1018 90.18 28.7786C90.0111 28.4554 89.7834 28.2057 89.4969 28.0294C89.2178 27.8531 88.9129 27.7649 88.5824 27.7649C88.2592 27.7649 87.9544 27.8531 87.6679 28.0294C87.3814 28.2057 87.15 28.4591 86.9737 28.7896C86.8048 29.1128 86.7203 29.4838 86.7203 29.9025C86.7203 30.3212 86.8048 30.6958 86.9737 31.0263C87.15 31.3495 87.3814 31.5993 87.6679 31.7756C87.9544 31.9519 88.2592 32.04 88.5824 32.04Z" fill="#4285F4"/>
<path d="M96.6916 30.3873C96.3537 30.3873 96.0599 30.2661 95.8102 30.0237C95.5678 29.7739 95.4466 29.4801 95.4466 29.1422C95.4466 28.797 95.5678 28.5032 95.8102 28.2608C96.0599 28.0184 96.3537 27.8972 96.6916 27.8972C97.0295 27.8972 97.3196 28.022 97.562 28.2718C97.8044 28.5142 97.9256 28.8043 97.9256 29.1422C97.9256 29.4801 97.8044 29.7739 97.562 30.0237C97.3196 30.2661 97.0295 30.3873 96.6916 30.3873ZM102.226 24.8231H103.151V28.9769H103.195L106.754 24.8231H107.955V24.8672L105.035 28.2387L108.165 32.668V32.7121H107.03L104.407 28.9549L103.151 30.3983V32.7121H102.226V24.8231ZM111.299 32.8884C110.748 32.8884 110.252 32.7562 109.812 32.4917C109.371 32.2273 109.026 31.8674 108.776 31.412C108.533 30.9565 108.412 30.4534 108.412 29.9025C108.412 29.3516 108.533 28.8484 108.776 28.393C109.026 27.9376 109.371 27.5776 109.812 27.3132C110.252 27.0488 110.748 26.9165 111.299 26.9165C111.85 26.9165 112.346 27.0488 112.786 27.3132C113.227 27.5776 113.569 27.9376 113.811 28.393C114.061 28.8484 114.186 29.3516 114.186 29.9025C114.186 30.4534 114.061 30.9565 113.811 31.412C113.569 31.8674 113.227 32.2273 112.786 32.4917C112.346 32.7562 111.85 32.8884 111.299 32.8884ZM111.299 32.04C111.644 32.04 111.964 31.9555 112.258 31.7866C112.559 31.6103 112.797 31.3605 112.974 31.0373C113.157 30.7141 113.249 30.3359 113.249 29.9025C113.249 29.4691 113.157 29.0908 112.974 28.7676C112.797 28.4444 112.559 28.1983 112.258 28.0294C111.964 27.8531 111.644 27.7649 111.299 27.7649C110.954 27.7649 110.631 27.8531 110.329 28.0294C110.028 28.1983 109.786 28.4444 109.602 28.7676C109.426 29.0908 109.338 29.4691 109.338 29.9025C109.338 30.3359 109.426 30.7141 109.602 31.0373C109.786 31.3605 110.028 31.6103 110.329 31.7866C110.631 31.9555 110.954 32.04 111.299 32.04ZM115.219 24.8231H116.156V32.7121H115.219V24.8231ZM117.544 24.8231H118.48V29.7813L121.125 27.0928H122.314V27.1369L120.111 29.3626L122.37 32.668V32.7121H121.257L119.45 30.0127L118.48 30.9823V32.7121H117.544V24.8231ZM124.795 32.8884C124.384 32.8884 124.016 32.8076 123.693 32.646C123.37 32.4844 123.12 32.264 122.944 31.9849C122.768 31.6984 122.679 31.3752 122.679 31.0153C122.679 30.4203 122.903 29.9576 123.351 29.627C123.8 29.2891 124.365 29.1202 125.048 29.1202C125.386 29.1202 125.698 29.1569 125.985 29.2304C126.279 29.3038 126.503 29.3883 126.657 29.4838V29.1422C126.657 28.7235 126.51 28.3893 126.216 28.1396C125.922 27.8825 125.551 27.7539 125.103 27.7539C124.788 27.7539 124.497 27.8237 124.233 27.9633C123.969 28.0955 123.759 28.2828 123.605 28.5252L122.9 27.9963C123.12 27.6584 123.421 27.394 123.803 27.203C124.193 27.012 124.622 26.9165 125.092 26.9165C125.856 26.9165 126.455 27.1185 126.888 27.5225C127.329 27.9192 127.549 28.4628 127.549 29.1532V32.7121H126.657V31.9078H126.613C126.451 32.1796 126.209 32.4109 125.886 32.6019C125.562 32.7929 125.199 32.8884 124.795 32.8884ZM124.883 32.062C125.199 32.062 125.493 31.9812 125.764 31.8196C126.036 31.658 126.253 31.4413 126.415 31.1696C126.576 30.8978 126.657 30.6003 126.657 30.2771C126.481 30.1596 126.264 30.0641 126.007 29.9906C125.75 29.9172 125.478 29.8804 125.192 29.8804C124.677 29.8804 124.288 29.9869 124.024 30.2C123.767 30.413 123.638 30.6884 123.638 31.0263C123.638 31.3348 123.755 31.5846 123.991 31.7756C124.226 31.9665 124.523 32.062 124.883 32.062ZM130.904 32.8003C130.677 32.8003 130.464 32.7635 130.265 32.6901C130.074 32.6166 129.913 32.5175 129.78 32.3926C129.634 32.253 129.523 32.0914 129.45 31.9078C129.376 31.7241 129.34 31.5001 129.34 31.2357V27.9412H128.359V27.0928H129.34V25.5062H130.276V27.0928H131.643V27.9412H130.276V31.0043C130.276 31.3128 130.335 31.5405 130.453 31.6874C130.592 31.849 130.794 31.9298 131.059 31.9298C131.272 31.9298 131.477 31.8674 131.676 31.7425V32.657C131.565 32.7084 131.452 32.7452 131.334 32.7672C131.224 32.7892 131.081 32.8003 130.904 32.8003ZM134.468 32.8884C134.057 32.8884 133.689 32.8076 133.366 32.646C133.043 32.4844 132.793 32.264 132.617 31.9849C132.441 31.6984 132.353 31.3752 132.353 31.0153C132.353 30.4203 132.577 29.9576 133.025 29.627C133.473 29.2891 134.038 29.1202 134.721 29.1202C135.059 29.1202 135.372 29.1569 135.658 29.2304C135.952 29.3038 136.176 29.3883 136.33 29.4838V29.1422C136.33 28.7235 136.183 28.3893 135.889 28.1396C135.596 27.8825 135.225 27.7539 134.777 27.7539C134.461 27.7539 134.171 27.8237 133.906 27.9633C133.642 28.0955 133.432 28.2828 133.278 28.5252L132.573 27.9963C132.793 27.6584 133.094 27.394 133.476 27.203C133.866 27.012 134.295 26.9165 134.766 26.9165C135.529 26.9165 136.128 27.1185 136.562 27.5225C137.002 27.9192 137.223 28.4628 137.223 29.1532V32.7121H136.33V31.9078H136.286C136.124 32.1796 135.882 32.4109 135.559 32.6019C135.236 32.7929 134.872 32.8884 134.468 32.8884ZM134.556 32.062C134.872 32.062 135.166 31.9812 135.438 31.8196C135.709 31.658 135.926 31.4413 136.088 31.1696C136.249 30.8978 136.33 30.6003 136.33 30.2771C136.154 30.1596 135.937 30.0641 135.68 29.9906C135.423 29.9172 135.151 29.8804 134.865 29.8804C134.351 29.8804 133.961 29.9869 133.697 30.2C133.44 30.413 133.311 30.6884 133.311 31.0263C133.311 31.3348 133.429 31.5846 133.664 31.7756C133.899 31.9665 134.196 32.062 134.556 32.062Z" fill="#676C72"/>
<path d="M69.6937 17.567C68.5191 17.567 67.4374 17.282 66.4489 16.7122C65.4603 16.1423 64.6752 15.3572 64.0937 14.357C63.5122 13.3568 63.2214 12.2519 63.2214 11.0424C63.2214 9.83282 63.5122 8.72794 64.0937 7.72774C64.6752 6.72753 65.4603 5.94249 66.4489 5.3726C67.4374 4.80271 68.5191 4.51777 69.6937 4.51777C70.6125 4.51777 71.4732 4.6806 72.2756 5.00624C73.0898 5.33189 73.7585 5.79129 74.2819 6.38444L73.2177 7.44861C72.8223 6.96014 72.3164 6.58797 71.6999 6.3321C71.0835 6.0646 70.4206 5.93086 69.7112 5.93086C68.8273 5.93086 68.0015 6.14602 67.2339 6.57634C66.4779 6.99503 65.8673 7.59399 65.4021 8.37322C64.9485 9.14082 64.7218 10.0305 64.7218 11.0424C64.7218 12.0542 64.9485 12.9497 65.4021 13.729C65.8673 14.4966 66.4837 15.0955 67.2514 15.5259C68.019 15.9446 68.8389 16.1539 69.7112 16.1539C70.5485 16.1539 71.2464 16.026 71.8046 15.7701C72.3745 15.5026 72.863 15.1537 73.27 14.7234C73.5724 14.3977 73.8167 14.0081 74.0027 13.5545C74.1888 13.0893 74.3051 12.5776 74.3517 12.0193H69.7286V10.6411H75.7298C75.788 10.9668 75.8171 11.2692 75.8171 11.5483C75.8171 12.3159 75.695 13.0661 75.4507 13.7988C75.2065 14.5198 74.8169 15.1537 74.2819 15.7003C73.1305 16.9448 71.6011 17.567 69.6937 17.567ZM81.7414 17.567C80.8692 17.567 80.0841 17.3576 79.3863 16.9389C78.6885 16.5203 78.1419 15.9504 77.7464 15.2293C77.3626 14.5082 77.1707 13.7115 77.1707 12.8393C77.1707 11.967 77.3626 11.1703 77.7464 10.4492C78.1419 9.72815 78.6885 9.15827 79.3863 8.73958C80.0841 8.32088 80.8692 8.11154 81.7414 8.11154C82.6137 8.11154 83.3988 8.32088 84.0966 8.73958C84.7944 9.15827 85.3352 9.72815 85.719 10.4492C86.1144 11.1703 86.3122 11.967 86.3122 12.8393C86.3122 13.7115 86.1144 14.5082 85.719 15.2293C85.3352 15.9504 84.7944 16.5203 84.0966 16.9389C83.3988 17.3576 82.6137 17.567 81.7414 17.567ZM81.7414 16.2237C82.2881 16.2237 82.794 16.0899 83.2592 15.8224C83.736 15.5433 84.114 15.1479 84.3932 14.6361C84.6839 14.1244 84.8293 13.5254 84.8293 12.8393C84.8293 12.1531 84.6839 11.5541 84.3932 11.0424C84.114 10.5306 83.736 10.141 83.2592 9.87353C82.794 9.5944 82.2881 9.45484 81.7414 9.45484C81.1948 9.45484 80.6831 9.5944 80.2062 9.87353C79.7294 10.141 79.3456 10.5306 79.0548 11.0424C78.7757 11.5541 78.6362 12.1531 78.6362 12.8393C78.6362 13.5254 78.7757 14.1244 79.0548 14.6361C79.3456 15.1479 79.7294 15.5433 80.2062 15.8224C80.6831 16.0899 81.1948 16.2237 81.7414 16.2237ZM92.1338 17.567C91.2615 17.567 90.4764 17.3576 89.7786 16.9389C89.0808 16.5203 88.5342 15.9504 88.1388 15.2293C87.7549 14.5082 87.563 13.7115 87.563 12.8393C87.563 11.967 87.7549 11.1703 88.1388 10.4492C88.5342 9.72815 89.0808 9.15827 89.7786 8.73958C90.4764 8.32088 91.2615 8.11154 92.1338 8.11154C93.006 8.11154 93.7911 8.32088 94.4889 8.73958C95.1867 9.15827 95.7275 9.72815 96.1113 10.4492C96.5068 11.1703 96.7045 11.967 96.7045 12.8393C96.7045 13.7115 96.5068 14.5082 96.1113 15.2293C95.7275 15.9504 95.1867 16.5203 94.4889 16.9389C93.7911 17.3576 93.006 17.567 92.1338 17.567ZM92.1338 16.2237C92.6804 16.2237 93.1863 16.0899 93.6515 15.8224C94.1284 15.5433 94.5063 15.1479 94.7855 14.6361C95.0762 14.1244 95.2216 13.5254 95.2216 12.8393C95.2216 12.1531 95.0762 11.5541 94.7855 11.0424C94.5063 10.5306 94.1284 10.141 93.6515 9.87353C93.1863 9.5944 92.6804 9.45484 92.1338 9.45484C91.5871 9.45484 91.0754 9.5944 90.5986 9.87353C90.1217 10.141 89.7379 10.5306 89.4472 11.0424C89.168 11.5541 89.0285 12.1531 89.0285 12.8393C89.0285 13.5254 89.168 14.1244 89.4472 14.6361C89.7379 15.1479 90.1217 15.5433 90.5986 15.8224C91.0754 16.0899 91.5871 16.2237 92.1338 16.2237ZM102.334 21.3352C101.287 21.3352 100.421 21.091 99.7348 20.6025C99.0602 20.114 98.6067 19.5267 98.3741 18.8405L99.7174 18.2648C99.9151 18.7765 100.241 19.1894 100.694 19.5034C101.16 19.8291 101.706 19.9919 102.334 19.9919C103.253 19.9919 103.962 19.7244 104.463 19.1894C104.974 18.6544 105.23 17.8984 105.23 16.9215V15.9271H105.16C104.87 16.3807 104.457 16.7529 103.922 17.0436C103.398 17.3227 102.799 17.4623 102.125 17.4623C101.357 17.4623 100.654 17.2646 100.014 16.8692C99.3859 16.4737 98.8858 15.9213 98.5136 15.2118C98.1415 14.5024 97.9554 13.6941 97.9554 12.7869C97.9554 11.8914 98.1415 11.0889 98.5136 10.3794C98.8858 9.65837 99.3859 9.10011 100.014 8.70468C100.654 8.30925 101.357 8.11154 102.125 8.11154C102.799 8.11154 103.398 8.25692 103.922 8.54767C104.457 8.8268 104.87 9.19897 105.16 9.66418H105.23V8.39067H106.643V16.9389C106.643 18.3695 106.248 19.4569 105.457 20.2012C104.666 20.9572 103.625 21.3352 102.334 21.3352ZM102.334 16.119C102.869 16.119 103.352 15.9853 103.782 15.7178C104.224 15.4503 104.573 15.0665 104.829 14.5664C105.096 14.0663 105.23 13.4731 105.23 12.7869C105.23 12.0891 105.096 11.4901 104.829 10.99C104.573 10.4899 104.224 10.112 103.782 9.85608C103.352 9.58859 102.869 9.45484 102.334 9.45484C101.799 9.45484 101.311 9.58859 100.869 9.85608C100.427 10.1236 100.072 10.5074 99.8046 11.0075C99.5487 11.5076 99.4208 12.1007 99.4208 12.7869C99.4208 13.4731 99.5487 14.0721 99.8046 14.5838C100.072 15.0839 100.427 15.4677 100.869 15.7352C101.311 15.9911 101.799 16.119 102.334 16.119ZM108.836 4.7969H110.319V17.2879H108.836V4.7969ZM116.391 17.567C115.542 17.567 114.78 17.3635 114.105 16.9564C113.431 16.5493 112.901 15.9911 112.518 15.2816C112.146 14.5605 111.959 13.7522 111.959 12.8567C111.959 11.9961 112.134 11.2052 112.483 10.4841C112.843 9.76304 113.349 9.18734 114.001 8.75702C114.652 8.3267 115.408 8.11154 116.268 8.11154C117.141 8.11154 117.897 8.30925 118.536 8.70468C119.176 9.08848 119.665 9.62348 120.002 10.3097C120.351 10.9959 120.525 11.7809 120.525 12.6648C120.525 12.8393 120.508 12.9905 120.473 13.1184H113.442C113.477 13.7929 113.64 14.3628 113.931 14.828C114.222 15.2933 114.588 15.6422 115.03 15.8748C115.483 16.1074 115.954 16.2237 116.443 16.2237C117.583 16.2237 118.461 15.6887 119.077 14.6187L120.333 15.2293C119.949 15.9504 119.426 16.5203 118.763 16.9389C118.112 17.3576 117.321 17.567 116.391 17.567ZM118.955 11.8972C118.932 11.525 118.827 11.1529 118.641 10.7807C118.455 10.4085 118.158 10.0945 117.751 9.83864C117.356 9.58277 116.856 9.45484 116.251 9.45484C115.553 9.45484 114.96 9.68163 114.472 10.1352C113.995 10.5772 113.681 11.1645 113.53 11.8972H118.955ZM126.612 4.7969H130.38C131.659 4.7969 132.776 5.0644 133.73 5.59939C134.683 6.12276 135.416 6.85546 135.928 7.79752C136.439 8.73957 136.695 9.82119 136.695 11.0424C136.695 12.2636 136.439 13.3452 135.928 14.2872C135.416 15.2293 134.683 15.9678 133.73 16.5028C132.776 17.0262 131.659 17.2879 130.38 17.2879H126.612V4.7969ZM130.38 15.8748C131.857 15.8748 133.026 15.4503 133.887 14.6013C134.759 13.7522 135.195 12.5659 135.195 11.0424C135.195 9.51881 134.759 8.33251 133.887 7.4835C133.026 6.63449 131.857 6.20998 130.38 6.20998H128.077V15.8748H130.38ZM142.286 17.567C141.437 17.567 140.675 17.3635 140.001 16.9564C139.326 16.5493 138.797 15.9911 138.413 15.2816C138.041 14.5605 137.855 13.7522 137.855 12.8567C137.855 11.9961 138.03 11.2052 138.378 10.4841C138.739 9.76304 139.245 9.18734 139.896 8.75702C140.547 8.3267 141.303 8.11154 142.164 8.11154C143.036 8.11154 143.792 8.30925 144.432 8.70468C145.072 9.08848 145.56 9.62348 145.897 10.3097C146.246 10.9959 146.421 11.7809 146.421 12.6648C146.421 12.8393 146.403 12.9905 146.368 13.1184H139.338C139.373 13.7929 139.536 14.3628 139.826 14.828C140.117 15.2933 140.484 15.6422 140.925 15.8748C141.379 16.1074 141.85 16.2237 142.339 16.2237C143.478 16.2237 144.356 15.6887 144.973 14.6187L146.229 15.2293C145.845 15.9504 145.322 16.5203 144.659 16.9389C144.007 17.3576 143.217 17.567 142.286 17.567ZM144.851 11.8972C144.827 11.525 144.723 11.1529 144.537 10.7807C144.351 10.4085 144.054 10.0945 143.647 9.83864C143.252 9.58277 142.751 9.45484 142.147 9.45484C141.449 9.45484 140.856 9.68163 140.367 10.1352C139.89 10.5772 139.576 11.1645 139.425 11.8972H144.851ZM147.009 8.39067H148.596L151.353 15.5433H151.388L154.179 8.39067H155.732L152.103 17.2879H150.603L147.009 8.39067ZM160.652 17.567C159.803 17.567 159.041 17.3635 158.366 16.9564C157.692 16.5493 157.163 15.9911 156.779 15.2816C156.407 14.5605 156.22 13.7522 156.22 12.8567C156.22 11.9961 156.395 11.2052 156.744 10.4841C157.104 9.76304 157.61 9.18734 158.262 8.75702C158.913 8.3267 159.669 8.11154 160.53 8.11154C161.402 8.11154 162.158 8.30925 162.797 8.70468C163.437 9.08848 163.926 9.62348 164.263 10.3097C164.612 10.9959 164.786 11.7809 164.786 12.6648C164.786 12.8393 164.769 12.9905 164.734 13.1184H157.703C157.738 13.7929 157.901 14.3628 158.192 14.828C158.483 15.2933 158.849 15.6422 159.291 15.8748C159.744 16.1074 160.216 16.2237 160.704 16.2237C161.844 16.2237 162.722 15.6887 163.338 14.6187L164.594 15.2293C164.211 15.9504 163.687 16.5203 163.024 16.9389C162.373 17.3576 161.582 17.567 160.652 17.567ZM163.216 11.8972C163.193 11.525 163.088 11.1529 162.902 10.7807C162.716 10.4085 162.419 10.0945 162.012 9.83864C161.617 9.58277 161.117 9.45484 160.512 9.45484C159.814 9.45484 159.221 9.68163 158.733 10.1352C158.256 10.5772 157.942 11.1645 157.791 11.8972H163.216ZM166.522 4.7969H168.004V17.2879H166.522V4.7969ZM174.216 17.567C173.344 17.567 172.559 17.3576 171.861 16.9389C171.163 16.5203 170.616 15.9504 170.221 15.2293C169.837 14.5082 169.645 13.7115 169.645 12.8393C169.645 11.967 169.837 11.1703 170.221 10.4492C170.616 9.72815 171.163 9.15827 171.861 8.73958C172.559 8.32088 173.344 8.11154 174.216 8.11154C175.088 8.11154 175.873 8.32088 176.571 8.73958C177.269 9.15827 177.81 9.72815 178.194 10.4492C178.589 11.1703 178.787 11.967 178.787 12.8393C178.787 13.7115 178.589 14.5082 178.194 15.2293C177.81 15.9504 177.269 16.5203 176.571 16.9389C175.873 17.3576 175.088 17.567 174.216 17.567ZM174.216 16.2237C174.763 16.2237 175.269 16.0899 175.734 15.8224C176.211 15.5433 176.589 15.1479 176.868 14.6361C177.159 14.1244 177.304 13.5254 177.304 12.8393C177.304 12.1531 177.159 11.5541 176.868 11.0424C176.589 10.5306 176.211 10.141 175.734 9.87353C175.269 9.5944 174.763 9.45484 174.216 9.45484C173.669 9.45484 173.158 9.5944 172.681 9.87353C172.204 10.141 171.82 10.5306 171.529 11.0424C171.25 11.5541 171.111 12.1531 171.111 12.8393C171.111 13.5254 171.25 14.1244 171.529 14.6361C171.82 15.1479 172.204 15.5433 172.681 15.8224C173.158 16.0899 173.669 16.2237 174.216 16.2237ZM180.354 8.39067H181.767V9.71652H181.837C182.104 9.26294 182.505 8.88495 183.04 8.58257C183.587 8.26855 184.198 8.11154 184.872 8.11154C185.663 8.11154 186.384 8.31507 187.035 8.72213C187.687 9.12919 188.198 9.69326 188.571 10.4143C188.943 11.1354 189.129 11.9437 189.129 12.8393C189.129 13.7464 188.943 14.5605 188.571 15.2816C188.198 15.9911 187.687 16.5493 187.035 16.9564C186.384 17.3635 185.663 17.567 184.872 17.567C184.198 17.567 183.587 17.4158 183.04 17.1134C182.505 16.7994 182.104 16.4214 181.837 15.9794H181.767L181.837 17.2006V21.0561H180.354V8.39067ZM184.698 16.2237C185.209 16.2237 185.692 16.0841 186.146 15.805C186.599 15.5259 186.96 15.1304 187.227 14.6187C187.506 14.0953 187.646 13.5022 187.646 12.8393C187.646 12.1763 187.506 11.589 187.227 11.0773C186.96 10.5539 186.599 10.1527 186.146 9.87353C185.692 9.5944 185.209 9.45484 184.698 9.45484C184.186 9.45484 183.703 9.5944 183.25 9.87353C182.796 10.1527 182.436 10.5481 182.168 11.0598C181.901 11.5716 181.767 12.1647 181.767 12.8393C181.767 13.5138 181.901 14.107 182.168 14.6187C182.436 15.1304 182.796 15.5259 183.25 15.805C183.703 16.0841 184.186 16.2237 184.698 16.2237ZM194.81 17.567C193.961 17.567 193.199 17.3635 192.525 16.9564C191.85 16.5493 191.321 15.9911 190.937 15.2816C190.565 14.5605 190.379 13.7522 190.379 12.8567C190.379 11.9961 190.553 11.2052 190.902 10.4841C191.263 9.76304 191.769 9.18734 192.42 8.75702C193.071 8.3267 193.827 8.11154 194.688 8.11154C195.56 8.11154 196.316 8.30925 196.956 8.70468C197.595 9.08848 198.084 9.62348 198.421 10.3097C198.77 10.9959 198.945 11.7809 198.945 12.6648C198.945 12.8393 198.927 12.9905 198.892 13.1184H191.862C191.897 13.7929 192.059 14.3628 192.35 14.828C192.641 15.2933 193.007 15.6422 193.449 15.8748C193.903 16.1074 194.374 16.2237 194.862 16.2237C196.002 16.2237 196.88 15.6887 197.497 14.6187L198.753 15.2293C198.369 15.9504 197.846 16.5203 197.183 16.9389C196.531 17.3576 195.74 17.567 194.81 17.567ZM197.374 11.8972C197.351 11.525 197.247 11.1529 197.06 10.7807C196.874 10.4085 196.578 10.0945 196.171 9.83864C195.775 9.58277 195.275 9.45484 194.67 9.45484C193.973 9.45484 193.379 9.68163 192.891 10.1352C192.414 10.5772 192.1 11.1645 191.949 11.8972H197.374ZM200.68 8.39067H202.093V9.82119H202.163C202.337 9.33272 202.675 8.93148 203.175 8.61746C203.675 8.29181 204.198 8.12898 204.745 8.12898C205.152 8.12898 205.501 8.18713 205.792 8.30344V9.90842C205.419 9.72234 205.001 9.62929 204.535 9.62929C204.105 9.62929 203.71 9.75141 203.349 9.99565C202.989 10.2399 202.698 10.5713 202.477 10.99C202.268 11.3971 202.163 11.8391 202.163 12.3159V17.2879H200.68V8.39067ZM217.094 17.567C215.92 17.567 214.838 17.282 213.849 16.7122C212.861 16.1423 212.076 15.3572 211.494 14.357C210.913 13.3568 210.622 12.2519 210.622 11.0424C210.622 9.83282 210.913 8.72794 211.494 7.72774C212.076 6.72753 212.861 5.94249 213.849 5.3726C214.838 4.80271 215.92 4.51777 217.094 4.51777C218.013 4.51777 218.874 4.6806 219.676 5.00624C220.49 5.33189 221.159 5.79129 221.682 6.38444L220.618 7.44861C220.223 6.96014 219.717 6.58797 219.1 6.3321C218.484 6.0646 217.821 5.93086 217.112 5.93086C216.228 5.93086 215.402 6.14602 214.634 6.57634C213.878 6.99503 213.268 7.59399 212.803 8.37322C212.349 9.14082 212.122 10.0305 212.122 11.0424C212.122 12.0542 212.349 12.9497 212.803 13.729C213.268 14.4966 213.884 15.0955 214.652 15.5259C215.419 15.9446 216.239 16.1539 217.112 16.1539C217.949 16.1539 218.647 16.026 219.205 15.7701C219.775 15.5026 220.264 15.1537 220.671 14.7234C220.973 14.3977 221.217 14.0081 221.403 13.5545C221.589 13.0893 221.706 12.5776 221.752 12.0193H217.129V10.6411H223.13C223.189 10.9668 223.218 11.2692 223.218 11.5483C223.218 12.3159 223.095 13.0661 222.851 13.7988C222.607 14.5198 222.217 15.1537 221.682 15.7003C220.531 16.9448 219.002 17.567 217.094 17.567ZM224.787 8.39067H226.2V9.82119H226.27C226.444 9.33272 226.781 8.93148 227.281 8.61746C227.782 8.29181 228.305 8.12898 228.852 8.12898C229.259 8.12898 229.608 8.18713 229.898 8.30344V9.90842C229.526 9.72234 229.107 9.62929 228.642 9.62929C228.212 9.62929 227.816 9.75141 227.456 9.99565C227.095 10.2399 226.805 10.5713 226.584 10.99C226.374 11.3971 226.27 11.8391 226.27 12.3159V17.2879H224.787V8.39067ZM234.9 17.567C234.028 17.567 233.243 17.3576 232.545 16.9389C231.847 16.5203 231.301 15.9504 230.905 15.2293C230.522 14.5082 230.33 13.7115 230.33 12.8393C230.33 11.967 230.522 11.1703 230.905 10.4492C231.301 9.72815 231.847 9.15827 232.545 8.73958C233.243 8.32088 234.028 8.11154 234.9 8.11154C235.773 8.11154 236.558 8.32088 237.256 8.73958C237.953 9.15827 238.494 9.72815 238.878 10.4492C239.273 11.1703 239.471 11.967 239.471 12.8393C239.471 13.7115 239.273 14.5082 238.878 15.2293C238.494 15.9504 237.953 16.5203 237.256 16.9389C236.558 17.3576 235.773 17.567 234.9 17.567ZM234.9 16.2237C235.447 16.2237 235.953 16.0899 236.418 15.8224C236.895 15.5433 237.273 15.1479 237.552 14.6361C237.843 14.1244 237.988 13.5254 237.988 12.8393C237.988 12.1531 237.843 11.5541 237.552 11.0424C237.273 10.5306 236.895 10.141 236.418 9.87353C235.953 9.5944 235.447 9.45484 234.9 9.45484C234.354 9.45484 233.842 9.5944 233.365 9.87353C232.888 10.141 232.505 10.5306 232.214 11.0424C231.935 11.5541 231.795 12.1531 231.795 12.8393C231.795 13.5254 231.935 14.1244 232.214 14.6361C232.505 15.1479 232.888 15.5433 233.365 15.8224C233.842 16.0899 234.354 16.2237 234.9 16.2237ZM244.335 17.567C243.265 17.567 242.445 17.253 241.875 16.6249C241.317 15.9969 241.038 15.1188 241.038 13.9907V8.39067H242.521V13.7639C242.521 14.6129 242.713 15.2351 243.097 15.6305C243.48 16.026 243.998 16.2237 244.649 16.2237C245.149 16.2237 245.591 16.0899 245.975 15.8224C246.371 15.5549 246.673 15.206 246.882 14.7757C247.103 14.3454 247.214 13.8918 247.214 13.415V8.39067H248.697V17.2879H247.284V15.9969H247.214C246.969 16.4388 246.58 16.811 246.045 17.1134C245.51 17.4158 244.94 17.567 244.335 17.567ZM250.817 8.39067H252.23V9.71652H252.3C252.567 9.26294 252.969 8.88495 253.504 8.58257C254.05 8.26855 254.661 8.11154 255.335 8.11154C256.126 8.11154 256.847 8.31507 257.499 8.72213C258.15 9.12919 258.662 9.69326 259.034 10.4143C259.406 11.1354 259.592 11.9437 259.592 12.8393C259.592 13.7464 259.406 14.5605 259.034 15.2816C258.662 15.9911 258.15 16.5493 257.499 16.9564C256.847 17.3635 256.126 17.567 255.335 17.567C254.661 17.567 254.05 17.4158 253.504 17.1134C252.969 16.7994 252.567 16.4214 252.3 15.9794H252.23L252.3 17.2006V21.0561H250.817V8.39067ZM255.161 16.2237C255.673 16.2237 256.155 16.0841 256.609 15.805C257.063 15.5259 257.423 15.1304 257.691 14.6187C257.97 14.0953 258.109 13.5022 258.109 12.8393C258.109 12.1763 257.97 11.589 257.691 11.0773C257.423 10.5539 257.063 10.1527 256.609 9.87353C256.155 9.5944 255.673 9.45484 255.161 9.45484C254.649 9.45484 254.167 9.5944 253.713 9.87353C253.259 10.1527 252.899 10.5481 252.631 11.0598C252.364 11.5716 252.23 12.1647 252.23 12.8393C252.23 13.5138 252.364 14.107 252.631 14.6187C252.899 15.1304 253.259 15.5259 253.713 15.805C254.167 16.0841 254.649 16.2237 255.161 16.2237ZM264.333 17.567C263.38 17.567 262.583 17.346 261.943 16.9041C261.304 16.4505 260.85 15.8748 260.583 15.177L261.908 14.5838C262.129 15.1188 262.455 15.5317 262.885 15.8224C263.327 16.1132 263.81 16.2586 264.333 16.2586C264.892 16.2586 265.368 16.1481 265.764 15.9271C266.159 15.6945 266.357 15.3689 266.357 14.9502C266.357 14.578 266.2 14.2814 265.886 14.0604C265.572 13.8278 265.078 13.6301 264.403 13.4673L263.321 13.1882C262.612 13.0137 262.031 12.7171 261.577 12.2984C261.123 11.8798 260.897 11.3389 260.897 10.676C260.897 10.1643 261.048 9.71652 261.35 9.33272C261.664 8.93729 262.077 8.6349 262.589 8.42556C263.1 8.21621 263.653 8.11154 264.246 8.11154C265.025 8.11154 265.717 8.28018 266.322 8.61746C266.938 8.95474 267.375 9.42576 267.631 10.0305L266.34 10.6237C265.944 9.83282 265.24 9.43739 264.229 9.43739C263.74 9.43739 263.31 9.5537 262.938 9.7863C262.577 10.0073 262.397 10.2922 262.397 10.6411C262.397 10.9668 262.525 11.2343 262.781 11.4436C263.037 11.6413 263.42 11.8042 263.932 11.9321L265.223 12.2636C266.095 12.4845 266.752 12.816 267.194 13.258C267.636 13.6883 267.857 14.2175 267.857 14.8455C267.857 15.3921 267.7 15.8748 267.386 16.2935C267.072 16.7005 266.648 17.0145 266.113 17.2355C265.578 17.4565 264.985 17.567 264.333 17.567Z" fill="#676C72"/>
<circle cx="19.4302" cy="8.67294" r="4.40629" fill="#E84435"/>
<rect x="2.12772" y="13.623" width="17.1776" height="8.75768" transform="rotate(-29.9941 2.12772 13.623)" fill="#E84435"/>
<circle cx="19.4302" cy="26.0378" r="4.40629" fill="#4285F4"/>
<circle cx="4.40629" cy="17.4197" r="4.40629" fill="#4285F4"/>
<rect x="7.1171" y="13.8147" width="16.9185" height="8.80484" transform="rotate(30.1051 7.1171 13.8147)" fill="#4285F4"/>
<circle cx="34.1309" cy="26.2341" r="4.40629" transform="rotate(-180 34.1309 26.2341)" fill="#FBBC04"/>
<rect x="51.4333" y="21.2841" width="17.1776" height="8.75768" transform="rotate(150.006 51.4333 21.2841)" fill="#FBBC04"/>
<circle cx="34.1309" cy="8.8693" r="4.40629" transform="rotate(-180 34.1309 8.8693)" fill="#0F9D58"/>
<rect x="46.4441" y="21.0923" width="16.9185" height="8.80484" transform="rotate(-149.895 46.4441 21.0923)" fill="#0F9D58"/>
<circle cx="49.1548" cy="17.4873" r="4.40629" transform="rotate(-180 49.1548 17.4873)" fill="#0F9D58"/>
</svg>
