<svg width="635" height="84" viewBox="0 0 635 84" fill="none" xmlns="http://www.w3.org/2000/svg">
<path d="M158.377 76.0448C156.572 76.0448 154.932 75.6195 153.456 74.7689C151.981 73.9184 150.818 72.7554 149.967 71.2799C149.134 69.7871 148.717 68.1294 148.717 66.3068C148.717 64.4842 149.134 62.8351 149.967 61.3597C150.818 59.8669 151.981 58.6952 153.456 57.8446C154.932 56.9941 156.572 56.5688 158.377 56.5688C159.766 56.5688 161.033 56.8378 162.179 57.3759C163.342 57.8967 164.348 58.6431 165.199 59.6152L163.611 61.1514C162.899 60.3008 162.118 59.6759 161.267 59.2767C160.434 58.8774 159.471 58.6778 158.377 58.6778C157.023 58.6778 155.782 58.9989 154.654 59.6412C153.526 60.2661 152.623 61.16 151.946 62.3231C151.286 63.4687 150.957 64.7966 150.957 66.3068C150.957 67.8169 151.286 69.1535 151.946 70.3165C152.623 71.4622 153.526 72.3561 154.654 72.9984C155.782 73.6233 157.023 73.9357 158.377 73.9357C160.634 73.9357 162.552 73.0071 164.131 71.1497L165.746 72.712C164.878 73.7361 163.81 74.552 162.543 75.1595C161.276 75.7497 159.887 76.0448 158.377 76.0448ZM168.231 56.9854H170.444V75.6282H168.231V56.9854ZM179.715 76.0448C178.413 76.0448 177.241 75.7323 176.2 75.1074C175.158 74.4825 174.342 73.632 173.752 72.5558C173.179 71.4795 172.893 70.2905 172.893 68.9886C172.893 67.6868 173.179 66.4977 173.752 65.4215C174.342 64.3453 175.158 63.4947 176.2 62.8698C177.241 62.2449 178.413 61.9325 179.715 61.9325C181.017 61.9325 182.188 62.2449 183.23 62.8698C184.271 63.4947 185.079 64.3453 185.651 65.4215C186.242 66.4977 186.537 67.6868 186.537 68.9886C186.537 70.2905 186.242 71.4795 185.651 72.5558C185.079 73.632 184.271 74.4825 183.23 75.1074C182.188 75.7323 181.017 76.0448 179.715 76.0448ZM179.715 74.0399C180.531 74.0399 181.286 73.8403 181.98 73.441C182.692 73.0244 183.256 72.4343 183.673 71.6705C184.107 70.9067 184.324 70.0128 184.324 68.9886C184.324 67.9645 184.107 67.0705 183.673 66.3068C183.256 65.543 182.692 64.9615 181.98 64.5623C181.286 64.1457 180.531 63.9374 179.715 63.9374C178.899 63.9374 178.135 64.1457 177.424 64.5623C176.712 64.9615 176.139 65.543 175.705 66.3068C175.289 67.0705 175.08 67.9645 175.08 68.9886C175.08 70.0128 175.289 70.9067 175.705 71.6705C176.139 72.4343 176.712 73.0244 177.424 73.441C178.135 73.8403 178.899 74.0399 179.715 74.0399ZM193.796 76.0448C192.199 76.0448 190.976 75.5761 190.125 74.6388C189.292 73.7014 188.875 72.3909 188.875 70.7071V62.3491H191.089V70.3686C191.089 71.6358 191.375 72.5644 191.948 73.1546C192.521 73.7448 193.293 74.0399 194.265 74.0399C195.012 74.0399 195.671 73.8403 196.244 73.441C196.834 73.0418 197.285 72.521 197.598 71.8788C197.928 71.2365 198.093 70.5596 198.093 69.8479V62.3491H200.306V75.6282H198.197V73.7014H198.093C197.728 74.361 197.147 74.9165 196.348 75.3678C195.55 75.8191 194.699 76.0448 193.796 76.0448ZM209.072 76.0448C207.891 76.0448 206.815 75.741 205.843 75.1335C204.888 74.5259 204.133 73.6927 203.578 72.6339C203.022 71.5577 202.745 70.3426 202.745 68.9886C202.745 67.652 203.022 66.4456 203.578 65.3694C204.133 64.2932 204.888 63.4513 205.843 62.8438C206.815 62.2363 207.891 61.9325 209.072 61.9325C210.096 61.9325 211.007 62.1668 211.806 62.6355C212.604 63.0868 213.212 63.651 213.628 64.3279H213.732L213.628 62.4793V56.9854H215.841V75.6282H213.732V73.6754H213.628C213.212 74.335 212.604 74.8991 211.806 75.3678C211.007 75.8191 210.096 76.0448 209.072 76.0448ZM209.332 74.0399C210.113 74.0399 210.834 73.8316 211.493 73.415C212.17 72.9984 212.708 72.4082 213.107 71.6444C213.524 70.8807 213.732 69.9954 213.732 68.9886C213.732 67.9819 213.524 67.0966 213.107 66.3328C212.708 65.569 212.17 64.9789 211.493 64.5623C210.834 64.1457 210.113 63.9374 209.332 63.9374C208.568 63.9374 207.848 64.1457 207.171 64.5623C206.494 64.9789 205.947 65.5777 205.531 66.3589C205.131 67.1226 204.932 67.9992 204.932 68.9886C204.932 69.9781 205.131 70.8633 205.531 71.6444C205.947 72.4082 206.494 72.9984 207.171 73.415C207.848 73.8316 208.568 74.0399 209.332 74.0399ZM228.495 70.1343C227.697 70.1343 227.002 69.8479 226.412 69.275C225.839 68.6849 225.553 67.9905 225.553 67.192C225.553 66.3762 225.839 65.6819 226.412 65.1091C227.002 64.5362 227.697 64.2498 228.495 64.2498C229.294 64.2498 229.979 64.5449 230.552 65.1351C231.125 65.7079 231.411 66.3936 231.411 67.192C231.411 67.9905 231.125 68.6849 230.552 69.275C229.979 69.8479 229.294 70.1343 228.495 70.1343ZM241.573 56.9854H243.76V66.8015H243.865L252.275 56.9854H255.113V57.0895L248.213 65.057L255.607 75.524V75.6282H252.926L246.729 66.7494L243.76 70.1603V75.6282H241.573V56.9854ZM263.014 76.0448C261.712 76.0448 260.541 75.7323 259.499 75.1074C258.458 74.4825 257.642 73.632 257.052 72.5558C256.479 71.4795 256.192 70.2905 256.192 68.9886C256.192 67.6868 256.479 66.4977 257.052 65.4215C257.642 64.3453 258.458 63.4947 259.499 62.8698C260.541 62.2449 261.712 61.9325 263.014 61.9325C264.316 61.9325 265.488 62.2449 266.529 62.8698C267.571 63.4947 268.378 64.3453 268.951 65.4215C269.541 66.4977 269.836 67.6868 269.836 68.9886C269.836 70.2905 269.541 71.4795 268.951 72.5558C268.378 73.632 267.571 74.4825 266.529 75.1074C265.488 75.7323 264.316 76.0448 263.014 76.0448ZM263.014 74.0399C263.83 74.0399 264.585 73.8403 265.28 73.441C265.991 73.0244 266.555 72.4343 266.972 71.6705C267.406 70.9067 267.623 70.0128 267.623 68.9886C267.623 67.9645 267.406 67.0705 266.972 66.3068C266.555 65.543 265.991 64.9615 265.28 64.5623C264.585 64.1457 263.83 63.9374 263.014 63.9374C262.198 63.9374 261.435 64.1457 260.723 64.5623C260.011 64.9615 259.438 65.543 259.005 66.3068C258.588 67.0705 258.38 67.9645 258.38 68.9886C258.38 70.0128 258.588 70.9067 259.005 71.6705C259.438 72.4343 260.011 73.0244 260.723 73.441C261.435 73.8403 262.198 74.0399 263.014 74.0399ZM272.279 56.9854H274.492V75.6282H272.279V56.9854ZM277.771 56.9854H279.984V68.7022L286.233 62.3491H289.045V62.4532L283.838 67.7128L289.176 75.524V75.6282H286.546L282.276 69.249L279.984 71.5403V75.6282H277.771V56.9854ZM294.907 76.0448C293.935 76.0448 293.067 75.8538 292.303 75.4719C291.539 75.0901 290.949 74.5693 290.533 73.9097C290.116 73.2327 289.908 72.469 289.908 71.6184C289.908 70.2124 290.437 69.1188 291.496 68.3377C292.555 67.5392 293.891 67.14 295.506 67.14C296.304 67.14 297.042 67.2268 297.719 67.4003C298.413 67.5739 298.943 67.7736 299.307 67.9992V67.192C299.307 66.2026 298.96 65.4128 298.266 64.8226C297.571 64.2151 296.695 63.9113 295.636 63.9113C294.89 63.9113 294.204 64.0762 293.579 64.406C292.954 64.7185 292.459 65.1611 292.095 65.734L290.428 64.4842C290.949 63.6857 291.661 63.0608 292.564 62.6095C293.483 62.1581 294.499 61.9325 295.61 61.9325C297.415 61.9325 298.83 62.4098 299.854 63.3645C300.895 64.3019 301.416 65.5864 301.416 67.2181V75.6282H299.307V73.7274H299.203C298.821 74.3697 298.248 74.9165 297.485 75.3678C296.721 75.8191 295.862 76.0448 294.907 76.0448ZM295.115 74.092C295.862 74.092 296.556 73.901 297.198 73.5191C297.84 73.1373 298.352 72.6252 298.734 71.9829C299.116 71.3407 299.307 70.6377 299.307 69.8739C298.891 69.5962 298.379 69.3705 297.771 69.1969C297.163 69.0233 296.521 68.9366 295.844 68.9366C294.629 68.9366 293.709 69.1883 293.084 69.6916C292.477 70.195 292.173 70.846 292.173 71.6444C292.173 72.3735 292.451 72.9637 293.006 73.415C293.562 73.8663 294.265 74.092 295.115 74.092ZM309.344 75.8365C308.806 75.8365 308.303 75.7497 307.834 75.5761C307.383 75.4025 307.001 75.1682 306.688 74.8731C306.341 74.5433 306.081 74.1614 305.907 73.7274C305.734 73.2935 305.647 72.7641 305.647 72.1392V64.354H303.33V62.3491H305.647V58.5997H307.86V62.3491H311.089V64.354H307.86V71.5924C307.86 72.3214 307.999 72.8595 308.277 73.2067C308.606 73.5886 309.084 73.7795 309.709 73.7795C310.212 73.7795 310.698 73.632 311.167 73.3369V75.498C310.906 75.6195 310.637 75.7063 310.36 75.7584C310.099 75.8104 309.761 75.8365 309.344 75.8365ZM317.766 76.0448C316.794 76.0448 315.926 75.8538 315.162 75.4719C314.398 75.0901 313.808 74.5693 313.392 73.9097C312.975 73.2327 312.767 72.469 312.767 71.6184C312.767 70.2124 313.296 69.1188 314.355 68.3377C315.414 67.5392 316.75 67.14 318.365 67.14C319.163 67.14 319.901 67.2268 320.578 67.4003C321.272 67.5739 321.802 67.7736 322.166 67.9992V67.192C322.166 66.2026 321.819 65.4128 321.125 64.8226C320.43 64.2151 319.554 63.9113 318.495 63.9113C317.749 63.9113 317.063 64.0762 316.438 64.406C315.813 64.7185 315.318 65.1611 314.954 65.734L313.287 64.4842C313.808 63.6857 314.52 63.0608 315.423 62.6095C316.343 62.1581 317.358 61.9325 318.469 61.9325C320.274 61.9325 321.689 62.4098 322.713 63.3645C323.755 64.3019 324.275 65.5864 324.275 67.2181V75.6282H322.166V73.7274H322.062C321.68 74.3697 321.107 74.9165 320.344 75.3678C319.58 75.8191 318.721 76.0448 317.766 76.0448ZM317.974 74.092C318.721 74.092 319.415 73.901 320.057 73.5191C320.699 73.1373 321.212 72.6252 321.593 71.9829C321.975 71.3407 322.166 70.6377 322.166 69.8739C321.75 69.5962 321.238 69.3705 320.63 69.1969C320.022 69.0233 319.38 68.9366 318.703 68.9366C317.488 68.9366 316.568 69.1883 315.943 69.6916C315.336 70.195 315.032 70.846 315.032 71.6444C315.032 72.3735 315.31 72.9637 315.865 73.415C316.421 73.8663 317.124 74.092 317.974 74.092Z" fill="white"/>
<path d="M164.696 40.6596C161.92 40.6596 159.364 39.9863 157.028 38.6395C154.691 37.2928 152.836 35.4377 151.462 33.074C150.088 30.7104 149.401 28.0995 149.401 25.2411C149.401 22.3828 150.088 19.7718 151.462 17.4082C152.836 15.0446 154.691 13.1894 157.028 11.8427C159.364 10.496 161.92 9.82263 164.696 9.82263C166.867 9.82263 168.901 10.2074 170.797 10.977C172.721 11.7465 174.301 12.8321 175.538 14.2338L173.023 16.7486C172.089 15.5943 170.893 14.7148 169.437 14.1101C167.98 13.478 166.413 13.1619 164.737 13.1619C162.648 13.1619 160.697 13.6704 158.883 14.6873C157.096 15.6767 155.653 17.0921 154.554 18.9336C153.482 20.7475 152.946 22.85 152.946 25.2411C152.946 27.6322 153.482 29.7485 154.554 31.5899C155.653 33.4039 157.11 34.8193 158.924 35.8362C160.738 36.8256 162.676 37.3203 164.737 37.3203C166.716 37.3203 168.365 37.018 169.684 36.4133C171.031 35.7812 172.185 34.9567 173.147 33.9398C173.862 33.1702 174.439 32.2495 174.878 31.1777C175.318 30.0783 175.593 28.869 175.703 27.5498H164.778V24.2929H178.96C179.097 25.0625 179.166 25.7771 179.166 26.4367C179.166 28.2506 178.877 30.0233 178.3 31.7548C177.723 33.4588 176.802 34.9567 175.538 36.2484C172.817 39.1892 169.203 40.6596 164.696 40.6596ZM193.166 40.6596C191.105 40.6596 189.25 40.1649 187.6 39.1755C185.951 38.1861 184.66 36.8393 183.725 35.1353C182.818 33.4313 182.365 31.5487 182.365 29.4874C182.365 27.4261 182.818 25.5434 183.725 23.8394C184.66 22.1354 185.951 20.7887 187.6 19.7993C189.25 18.8099 191.105 18.3152 193.166 18.3152C195.227 18.3152 197.082 18.8099 198.731 19.7993C200.381 20.7887 201.659 22.1354 202.566 23.8394C203.5 25.5434 203.967 27.4261 203.967 29.4874C203.967 31.5487 203.5 33.4313 202.566 35.1353C201.659 36.8393 200.381 38.1861 198.731 39.1755C197.082 40.1649 195.227 40.6596 193.166 40.6596ZM193.166 37.4852C194.458 37.4852 195.653 37.1692 196.753 36.537C197.879 35.8774 198.773 34.943 199.432 33.7337C200.119 32.5244 200.463 31.1089 200.463 29.4874C200.463 27.8658 200.119 26.4504 199.432 25.2411C198.773 24.0318 197.879 23.1111 196.753 22.479C195.653 21.8194 194.458 21.4896 193.166 21.4896C191.874 21.4896 190.665 21.8194 189.538 22.479C188.411 23.1111 187.504 24.0318 186.817 25.2411C186.158 26.4504 185.828 27.8658 185.828 29.4874C185.828 31.1089 186.158 32.5244 186.817 33.7337C187.504 34.943 188.411 35.8774 189.538 36.537C190.665 37.1692 191.874 37.4852 193.166 37.4852ZM217.724 40.6596C215.663 40.6596 213.808 40.1649 212.159 39.1755C210.51 38.1861 209.218 36.8393 208.284 35.1353C207.377 33.4313 206.923 31.5487 206.923 29.4874C206.923 27.4261 207.377 25.5434 208.284 23.8394C209.218 22.1354 210.51 20.7887 212.159 19.7993C213.808 18.8099 215.663 18.3152 217.724 18.3152C219.786 18.3152 221.641 18.8099 223.29 19.7993C224.939 20.7887 226.217 22.1354 227.124 23.8394C228.058 25.5434 228.526 27.4261 228.526 29.4874C228.526 31.5487 228.058 33.4313 227.124 35.1353C226.217 36.8393 224.939 38.1861 223.29 39.1755C221.641 40.1649 219.786 40.6596 217.724 40.6596ZM217.724 37.4852C219.016 37.4852 220.212 37.1692 221.311 36.537C222.438 35.8774 223.331 34.943 223.991 33.7337C224.678 32.5244 225.021 31.1089 225.021 29.4874C225.021 27.8658 224.678 26.4504 223.991 25.2411C223.331 24.0318 222.438 23.1111 221.311 22.479C220.212 21.8194 219.016 21.4896 217.724 21.4896C216.433 21.4896 215.223 21.8194 214.097 22.479C212.97 23.1111 212.063 24.0318 211.376 25.2411C210.716 26.4504 210.386 27.8658 210.386 29.4874C210.386 31.1089 210.716 32.5244 211.376 33.7337C212.063 34.943 212.97 35.8774 214.097 36.537C215.223 37.1692 216.433 37.4852 217.724 37.4852ZM241.829 49.5644C239.356 49.5644 237.308 48.9873 235.687 47.8329C234.093 46.6786 233.021 45.2907 232.471 43.6691L235.645 42.3087C236.113 43.5179 236.882 44.4936 237.954 45.2357C239.053 46.0052 240.345 46.39 241.829 46.39C244.001 46.39 245.677 45.7579 246.859 44.4936C248.068 43.2294 248.673 41.4429 248.673 39.1343V36.7844H248.508C247.821 37.8563 246.845 38.7357 245.581 39.4228C244.344 40.0825 242.929 40.4123 241.335 40.4123C239.521 40.4123 237.858 39.945 236.346 39.0106C234.862 38.0761 233.68 36.7706 232.801 35.0941C231.921 33.4176 231.482 31.5075 231.482 29.3637C231.482 27.2474 231.921 25.3511 232.801 23.6745C233.68 21.9705 234.862 20.6513 236.346 19.7168C237.858 18.7824 239.521 18.3152 241.335 18.3152C242.929 18.3152 244.344 18.6587 245.581 19.3458C246.845 20.0054 247.821 20.8849 248.508 21.9843H248.673V18.9748H252.012V39.1755C252.012 42.556 251.078 45.1258 249.209 46.8847C247.34 48.6712 244.88 49.5644 241.829 49.5644ZM241.829 37.2379C243.094 37.2379 244.234 36.9218 245.251 36.2897C246.295 35.6575 247.12 34.7506 247.725 33.5688C248.357 32.3869 248.673 30.9853 248.673 29.3637C248.673 27.7147 248.357 26.2993 247.725 25.1174C247.12 23.9356 246.295 23.0424 245.251 22.4378C244.234 21.8056 243.094 21.4896 241.829 21.4896C240.565 21.4896 239.411 21.8056 238.366 22.4378C237.322 23.0699 236.484 23.9769 235.852 25.1587C235.247 26.3405 234.945 27.7422 234.945 29.3637C234.945 30.9853 235.247 32.4007 235.852 33.61C236.484 34.7918 237.322 35.6988 238.366 36.3309C239.411 36.9355 240.565 37.2379 241.829 37.2379ZM257.193 10.4822H260.698V40H257.193V10.4822ZM275.046 40.6596C273.04 40.6596 271.24 40.1786 269.646 39.2167C268.052 38.2548 266.801 36.9355 265.894 35.259C265.015 33.555 264.575 31.6449 264.575 29.5286C264.575 27.4948 264.987 25.6259 265.812 23.9219C266.664 22.2179 267.859 20.8574 269.399 19.8405C270.938 18.8236 272.724 18.3152 274.758 18.3152C276.819 18.3152 278.606 18.7824 280.117 19.7168C281.629 20.6238 282.783 21.8881 283.58 23.5096C284.405 25.1312 284.817 26.9864 284.817 29.0751C284.817 29.4874 284.776 29.8447 284.693 30.147H268.079C268.162 31.7411 268.547 33.0878 269.234 34.1871C269.921 35.2865 270.786 36.111 271.831 36.6607C272.903 37.2104 274.016 37.4852 275.17 37.4852C277.864 37.4852 279.939 36.221 281.395 33.6924L284.364 35.1353C283.457 36.8393 282.22 38.1861 280.653 39.1755C279.114 40.1649 277.245 40.6596 275.046 40.6596ZM281.107 27.2612C281.052 26.3817 280.804 25.5022 280.365 24.6227C279.925 23.7432 279.224 23.0012 278.262 22.3965C277.328 21.7919 276.146 21.4896 274.717 21.4896C273.068 21.4896 271.666 22.0255 270.512 23.0974C269.385 24.1418 268.643 25.5297 268.285 27.2612H281.107ZM299.201 10.4822H308.105C311.129 10.4822 313.767 11.1144 316.021 12.3786C318.275 13.6154 320.006 15.3469 321.215 17.5731C322.425 19.7993 323.029 22.3553 323.029 25.2411C323.029 28.1269 322.425 30.6829 321.215 32.9091C320.006 35.1353 318.275 36.8806 316.021 38.1448C313.767 39.3816 311.129 40 308.105 40H299.201V10.4822ZM308.105 36.6607C311.596 36.6607 314.358 35.6575 316.392 33.6512C318.453 31.6449 319.484 28.8415 319.484 25.2411C319.484 21.6407 318.453 18.8374 316.392 16.831C314.358 14.8247 311.596 13.8215 308.105 13.8215H302.664V36.6607H308.105ZM336.241 40.6596C334.235 40.6596 332.435 40.1786 330.841 39.2167C329.247 38.2548 327.996 36.9355 327.089 35.259C326.21 33.555 325.77 31.6449 325.77 29.5286C325.77 27.4948 326.182 25.6259 327.007 23.9219C327.859 22.2179 329.054 20.8574 330.593 19.8405C332.132 18.8236 333.919 18.3152 335.953 18.3152C338.014 18.3152 339.8 18.7824 341.312 19.7168C342.824 20.6238 343.978 21.8881 344.775 23.5096C345.599 25.1312 346.012 26.9864 346.012 29.0751C346.012 29.4874 345.971 29.8447 345.888 30.147H329.274C329.356 31.7411 329.741 33.0878 330.428 34.1871C331.115 35.2865 331.981 36.111 333.026 36.6607C334.097 37.2104 335.211 37.4852 336.365 37.4852C339.058 37.4852 341.133 36.221 342.59 33.6924L345.558 35.1353C344.651 36.8393 343.415 38.1861 341.848 39.1755C340.309 40.1649 338.44 40.6596 336.241 40.6596ZM342.301 27.2612C342.246 26.3817 341.999 25.5022 341.559 24.6227C341.12 23.7432 340.419 23.0012 339.457 22.3965C338.522 21.7919 337.341 21.4896 335.911 21.4896C334.262 21.4896 332.861 22.0255 331.706 23.0974C330.579 24.1418 329.837 25.5297 329.48 27.2612H342.301ZM347.401 18.9748H351.153L357.667 35.8774H357.749L364.345 18.9748H368.014L359.439 40H355.894L347.401 18.9748ZM379.641 40.6596C377.635 40.6596 375.835 40.1786 374.241 39.2167C372.646 38.2548 371.396 36.9355 370.489 35.259C369.609 33.555 369.17 31.6449 369.17 29.5286C369.17 27.4948 369.582 25.6259 370.407 23.9219C371.259 22.2179 372.454 20.8574 373.993 19.8405C375.532 18.8236 377.319 18.3152 379.353 18.3152C381.414 18.3152 383.2 18.7824 384.712 19.7168C386.224 20.6238 387.378 21.8881 388.175 23.5096C388.999 25.1312 389.412 26.9864 389.412 29.0751C389.412 29.4874 389.37 29.8447 389.288 30.147H372.674C372.756 31.7411 373.141 33.0878 373.828 34.1871C374.515 35.2865 375.381 36.111 376.426 36.6607C377.497 37.2104 378.61 37.4852 379.765 37.4852C382.458 37.4852 384.533 36.221 385.99 33.6924L388.958 35.1353C388.051 36.8393 386.814 38.1861 385.248 39.1755C383.709 40.1649 381.84 40.6596 379.641 40.6596ZM385.701 27.2612C385.646 26.3817 385.399 25.5022 384.959 24.6227C384.52 23.7432 383.819 23.0012 382.857 22.3965C381.922 21.7919 380.74 21.4896 379.311 21.4896C377.662 21.4896 376.261 22.0255 375.106 23.0974C373.979 24.1418 373.237 25.5297 372.88 27.2612H385.701ZM393.513 10.4822H397.017V40H393.513V10.4822ZM411.696 40.6596C409.634 40.6596 407.779 40.1649 406.13 39.1755C404.481 38.1861 403.189 36.8393 402.255 35.1353C401.348 33.4313 400.894 31.5487 400.894 29.4874C400.894 27.4261 401.348 25.5434 402.255 23.8394C403.189 22.1354 404.481 20.7887 406.13 19.7993C407.779 18.8099 409.634 18.3152 411.696 18.3152C413.757 18.3152 415.612 18.8099 417.261 19.7993C418.91 20.7887 420.188 22.1354 421.095 23.8394C422.03 25.5434 422.497 27.4261 422.497 29.4874C422.497 31.5487 422.03 33.4313 421.095 35.1353C420.188 36.8393 418.91 38.1861 417.261 39.1755C415.612 40.1649 413.757 40.6596 411.696 40.6596ZM411.696 37.4852C412.987 37.4852 414.183 37.1692 415.282 36.537C416.409 35.8774 417.302 34.943 417.962 33.7337C418.649 32.5244 418.993 31.1089 418.993 29.4874C418.993 27.8658 418.649 26.4504 417.962 25.2411C417.302 24.0318 416.409 23.1111 415.282 22.479C414.183 21.8194 412.987 21.4896 411.696 21.4896C410.404 21.4896 409.195 21.8194 408.068 22.479C406.941 23.1111 406.034 24.0318 405.347 25.2411C404.687 26.4504 404.357 27.8658 404.357 29.4874C404.357 31.1089 404.687 32.5244 405.347 33.7337C406.034 34.943 406.941 35.8774 408.068 36.537C409.195 37.1692 410.404 37.4852 411.696 37.4852ZM426.2 18.9748H429.539V22.108H429.704C430.336 21.0361 431.284 20.1428 432.548 19.4283C433.84 18.6862 435.283 18.3152 436.877 18.3152C438.746 18.3152 440.45 18.7961 441.989 19.7581C443.528 20.72 444.738 22.053 445.617 23.757C446.497 25.461 446.936 27.3711 446.936 29.4874C446.936 31.6311 446.497 33.555 445.617 35.259C444.738 36.9355 443.528 38.2548 441.989 39.2167C440.45 40.1786 438.746 40.6596 436.877 40.6596C435.283 40.6596 433.84 40.3023 432.548 39.5877C431.284 38.8457 430.336 37.9524 429.704 36.9081H429.539L429.704 39.7939V48.9048H426.2V18.9748ZM436.465 37.4852C437.674 37.4852 438.815 37.1554 439.887 36.4958C440.959 35.8362 441.811 34.9017 442.443 33.6924C443.102 32.4557 443.432 31.054 443.432 29.4874C443.432 27.9208 443.102 26.5329 442.443 25.3236C441.811 24.0868 440.959 23.1386 439.887 22.479C438.815 21.8194 437.674 21.4896 436.465 21.4896C435.256 21.4896 434.115 21.8194 433.043 22.479C431.971 23.1386 431.119 24.0731 430.487 25.2823C429.855 26.4916 429.539 27.8933 429.539 29.4874C429.539 31.0815 429.855 32.4831 430.487 33.6924C431.119 34.9017 431.971 35.8362 433.043 36.4958C434.115 37.1554 435.256 37.4852 436.465 37.4852ZM460.362 40.6596C458.355 40.6596 456.555 40.1786 454.961 39.2167C453.367 38.2548 452.117 36.9355 451.21 35.259C450.33 33.555 449.89 31.6449 449.89 29.5286C449.89 27.4948 450.303 25.6259 451.127 23.9219C451.979 22.2179 453.175 20.8574 454.714 19.8405C456.253 18.8236 458.039 18.3152 460.073 18.3152C462.135 18.3152 463.921 18.7824 465.433 19.7168C466.944 20.6238 468.099 21.8881 468.896 23.5096C469.72 25.1312 470.132 26.9864 470.132 29.0751C470.132 29.4874 470.091 29.8447 470.009 30.147H453.395C453.477 31.7411 453.862 33.0878 454.549 34.1871C455.236 35.2865 456.102 36.111 457.146 36.6607C458.218 37.2104 459.331 37.4852 460.485 37.4852C463.179 37.4852 465.254 36.221 466.711 33.6924L469.679 35.1353C468.772 36.8393 467.535 38.1861 465.969 39.1755C464.429 40.1649 462.561 40.6596 460.362 40.6596ZM466.422 27.2612C466.367 26.3817 466.12 25.5022 465.68 24.6227C465.24 23.7432 464.539 23.0012 463.577 22.3965C462.643 21.7919 461.461 21.4896 460.032 21.4896C458.383 21.4896 456.981 22.0255 455.827 23.0974C454.7 24.1418 453.958 25.5297 453.601 27.2612H466.422ZM474.233 18.9748H477.573V22.3553H477.738C478.15 21.201 478.947 20.2528 480.129 19.5107C481.31 18.7412 482.547 18.3564 483.839 18.3564C484.801 18.3564 485.625 18.4938 486.313 18.7687V22.5614C485.433 22.1217 484.444 21.9018 483.344 21.9018C482.327 21.9018 481.393 22.1904 480.541 22.7676C479.689 23.3447 479.002 24.128 478.48 25.1174C477.985 26.0794 477.738 27.1238 477.738 28.2506V40H474.233V18.9748ZM513.022 40.6596C510.247 40.6596 507.691 39.9863 505.354 38.6395C503.018 37.2928 501.163 35.4377 499.789 33.074C498.415 30.7104 497.728 28.0995 497.728 25.2411C497.728 22.3828 498.415 19.7718 499.789 17.4082C501.163 15.0446 503.018 13.1894 505.354 11.8427C507.691 10.496 510.247 9.82263 513.022 9.82263C515.194 9.82263 517.227 10.2074 519.124 10.977C521.048 11.7465 522.628 12.8321 523.865 14.2338L521.35 16.7486C520.416 15.5943 519.22 14.7148 517.763 14.1101C516.307 13.478 514.74 13.1619 513.064 13.1619C510.975 13.1619 509.024 13.6704 507.21 14.6873C505.423 15.6767 503.98 17.0921 502.881 18.9336C501.809 20.7475 501.273 22.85 501.273 25.2411C501.273 27.6322 501.809 29.7485 502.881 31.5899C503.98 33.4039 505.437 34.8193 507.251 35.8362C509.065 36.8256 511.002 37.3203 513.064 37.3203C515.043 37.3203 516.692 37.018 518.011 36.4133C519.357 35.7812 520.512 34.9567 521.474 33.9398C522.188 33.1702 522.766 32.2495 523.205 31.1777C523.645 30.0783 523.92 28.869 524.03 27.5498H513.105V24.2929H527.287C527.424 25.0625 527.493 25.7771 527.493 26.4367C527.493 28.2506 527.204 30.0233 526.627 31.7548C526.05 33.4588 525.129 34.9567 523.865 36.2484C521.144 39.1892 517.53 40.6596 513.022 40.6596ZM531.201 18.9748H534.54V22.3553H534.705C535.117 21.201 535.914 20.2528 537.096 19.5107C538.278 18.7412 539.515 18.3564 540.806 18.3564C541.768 18.3564 542.593 18.4938 543.28 18.7687V22.5614C542.401 22.1217 541.411 21.9018 540.312 21.9018C539.295 21.9018 538.36 22.1904 537.508 22.7676C536.656 23.3447 535.969 24.128 535.447 25.1174C534.952 26.0794 534.705 27.1238 534.705 28.2506V40H531.201V18.9748ZM555.101 40.6596C553.039 40.6596 551.184 40.1649 549.535 39.1755C547.886 38.1861 546.594 36.8393 545.66 35.1353C544.753 33.4313 544.299 31.5487 544.299 29.4874C544.299 27.4261 544.753 25.5434 545.66 23.8394C546.594 22.1354 547.886 20.7887 549.535 19.7993C551.184 18.8099 553.039 18.3152 555.101 18.3152C557.162 18.3152 559.017 18.8099 560.666 19.7993C562.315 20.7887 563.593 22.1354 564.5 23.8394C565.435 25.5434 565.902 27.4261 565.902 29.4874C565.902 31.5487 565.435 33.4313 564.5 35.1353C563.593 36.8393 562.315 38.1861 560.666 39.1755C559.017 40.1649 557.162 40.6596 555.101 40.6596ZM555.101 37.4852C556.392 37.4852 557.588 37.1692 558.687 36.537C559.814 35.8774 560.707 34.943 561.367 33.7337C562.054 32.5244 562.398 31.1089 562.398 29.4874C562.398 27.8658 562.054 26.4504 561.367 25.2411C560.707 24.0318 559.814 23.1111 558.687 22.479C557.588 21.8194 556.392 21.4896 555.101 21.4896C553.809 21.4896 552.6 21.8194 551.473 22.479C550.346 23.1111 549.439 24.0318 548.752 25.2411C548.092 26.4504 547.762 27.8658 547.762 29.4874C547.762 31.1089 548.092 32.5244 548.752 33.7337C549.439 34.943 550.346 35.8774 551.473 36.537C552.6 37.1692 553.809 37.4852 555.101 37.4852ZM577.396 40.6596C574.868 40.6596 572.93 39.9175 571.584 38.4334C570.264 36.9493 569.605 34.8742 569.605 32.2083V18.9748H573.109V31.6724C573.109 33.6787 573.562 35.1491 574.469 36.0835C575.376 37.018 576.599 37.4852 578.138 37.4852C579.32 37.4852 580.365 37.1692 581.272 36.537C582.206 35.9049 582.921 35.0804 583.415 34.0635C583.938 33.0466 584.199 31.9747 584.199 30.8478V18.9748H587.703V40H584.364V36.9493H584.199C583.622 37.9937 582.701 38.8732 581.437 39.5877C580.172 40.3023 578.826 40.6596 577.396 40.6596ZM592.714 18.9748H596.053V22.108H596.218C596.85 21.0361 597.798 20.1428 599.063 19.4283C600.354 18.6862 601.797 18.3152 603.391 18.3152C605.26 18.3152 606.964 18.7961 608.503 19.7581C610.042 20.72 611.252 22.053 612.131 23.757C613.011 25.461 613.45 27.3711 613.45 29.4874C613.45 31.6311 613.011 33.555 612.131 35.259C611.252 36.9355 610.042 38.2548 608.503 39.2167C606.964 40.1786 605.26 40.6596 603.391 40.6596C601.797 40.6596 600.354 40.3023 599.063 39.5877C597.798 38.8457 596.85 37.9524 596.218 36.9081H596.053L596.218 39.7939V48.9048H592.714V18.9748ZM602.979 37.4852C604.188 37.4852 605.329 37.1554 606.401 36.4958C607.473 35.8362 608.325 34.9017 608.957 33.6924C609.616 32.4557 609.946 31.054 609.946 29.4874C609.946 27.9208 609.616 26.5329 608.957 25.3236C608.325 24.0868 607.473 23.1386 606.401 22.479C605.329 21.8194 604.188 21.4896 602.979 21.4896C601.77 21.4896 600.629 21.8194 599.557 22.479C598.485 23.1386 597.633 24.0731 597.001 25.2823C596.369 26.4916 596.053 27.8933 596.053 29.4874C596.053 31.0815 596.369 32.4831 597.001 33.6924C597.633 34.9017 598.485 35.8362 599.557 36.4958C600.629 37.1554 601.77 37.4852 602.979 37.4852ZM624.655 40.6596C622.401 40.6596 620.518 40.1374 619.007 39.093C617.495 38.0212 616.423 36.6607 615.791 35.0117L618.924 33.61C619.446 34.8742 620.216 35.8499 621.233 36.537C622.277 37.2241 623.418 37.5677 624.655 37.5677C625.974 37.5677 627.101 37.3066 628.035 36.7844C628.969 36.2347 629.437 35.4651 629.437 34.4757C629.437 33.5962 629.066 32.8954 628.324 32.3732C627.582 31.8235 626.413 31.3563 624.819 30.9715L622.263 30.3119C620.587 29.8996 619.213 29.1988 618.141 28.2094C617.069 27.22 616.533 25.942 616.533 24.3754C616.533 23.1661 616.89 22.108 617.605 21.201C618.347 20.2665 619.323 19.5519 620.532 19.0572C621.741 18.5625 623.047 18.3152 624.448 18.3152C626.29 18.3152 627.925 18.7137 629.354 19.5107C630.811 20.3078 631.842 21.4209 632.446 22.85L629.395 24.2517C628.461 22.3828 626.798 21.4483 624.407 21.4483C623.253 21.4483 622.236 21.7232 621.356 22.2729C620.504 22.795 620.078 23.4684 620.078 24.2929C620.078 25.0625 620.381 25.6946 620.985 26.1893C621.59 26.6565 622.497 27.0413 623.706 27.3436L626.757 28.1269C628.818 28.6491 630.371 29.4324 631.416 30.4768C632.46 31.4937 632.982 32.7442 632.982 34.2284C632.982 35.5201 632.611 36.6607 631.869 37.6501C631.127 38.6121 630.124 39.3541 628.86 39.8763C627.595 40.3985 626.194 40.6596 624.655 40.6596Z" fill="white"/>
<circle cx="45.9161" cy="19.815" r="10.4126" fill="white"/>
<rect x="5.02808" y="31.5125" width="40.5928" height="20.6955" transform="rotate(-29.9941 5.02808 31.5125)" fill="white"/>
<circle cx="45.9161" cy="60.8504" r="10.4126" fill="white"/>
<circle cx="10.4126" cy="40.4849" r="10.4126" fill="white"/>
<rect x="16.8188" y="31.9657" width="39.9807" height="20.807" transform="rotate(30.1051 16.8188 31.9657)" fill="white"/>
<circle cx="80.6555" cy="61.3144" r="10.4126" transform="rotate(-180 80.6555 61.3144)" fill="white"/>
<rect x="121.544" y="49.6168" width="40.5928" height="20.6955" transform="rotate(150.006 121.544 49.6168)" fill="white"/>
<circle cx="80.6555" cy="20.2789" r="10.4126" transform="rotate(-180 80.6555 20.2789)" fill="white"/>
<rect x="109.753" y="49.1636" width="39.9807" height="20.807" transform="rotate(-149.895 109.753 49.1636)" fill="white"/>
<circle cx="116.159" cy="40.6445" r="10.4126" transform="rotate(-180 116.159 40.6445)" fill="white"/>
</svg>
