<svg width="50" height="30" viewBox="0 0 50 30" fill="none" xmlns="http://www.w3.org/2000/svg">
<path d="M9.95808 20.3664V18.9047C10.4412 18.4298 10.8875 17.9876 11.297 17.5781C11.4689 17.4062 11.645 17.2301 11.8251 17.0499C12.0053 16.8698 12.1732 16.7019 12.3287 16.5463C12.4843 16.3907 12.6235 16.2515 12.7464 16.1287C12.8692 15.9977 12.9634 15.8953 13.0289 15.8216C13.1599 15.666 13.2746 15.5268 13.3728 15.404C13.4793 15.2812 13.5612 15.1624 13.6185 15.0478C13.684 14.9249 13.7331 14.8062 13.7659 14.6916C13.7986 14.5687 13.815 14.4377 13.815 14.2985C13.815 14.0283 13.7086 13.7949 13.4957 13.5984C13.2827 13.3936 12.992 13.2913 12.6235 13.2913C12.255 13.2913 11.9684 13.3977 11.7637 13.6106C11.559 13.8154 11.4198 14.0487 11.3461 14.3108L9.88438 13.7089C9.94989 13.4878 10.0563 13.2626 10.2037 13.0333C10.3511 12.7958 10.5395 12.587 10.7688 12.4069C10.9981 12.2185 11.2683 12.067 11.5795 11.9524C11.8988 11.8296 12.255 11.7682 12.6481 11.7682C13.0739 11.7682 13.4588 11.8337 13.8027 11.9647C14.1467 12.0875 14.4374 12.2595 14.6748 12.4806C14.9123 12.7017 15.0966 12.9637 15.2276 13.2667C15.3586 13.5615 15.4241 13.8809 15.4241 14.2248C15.4241 14.7489 15.2931 15.232 15.0311 15.6742C14.7772 16.1082 14.466 16.5136 14.0975 16.8903L13.0412 17.9466C12.7628 18.225 12.4475 18.5362 12.0954 18.8801L12.1445 18.9538H15.5469V20.3664H9.95808Z" fill="#010B17"/>
<path d="M20.275 20.5629C19.7346 20.5629 19.2473 20.4524 18.8133 20.2313C18.3793 20.002 18.0067 19.6908 17.6956 19.2978C17.3926 18.9047 17.1592 18.442 16.9954 17.9098C16.8316 17.3693 16.7497 16.7879 16.7497 16.1655C16.7497 15.5432 16.8316 14.9659 16.9954 14.4336C17.1592 13.8932 17.3926 13.4264 17.6956 13.0333C18.0067 12.6403 18.3793 12.3332 18.8133 12.1121C19.2473 11.8828 19.7346 11.7682 20.275 11.7682C20.8155 11.7682 21.3027 11.8828 21.7367 12.1121C22.1707 12.3332 22.5392 12.6403 22.8422 13.0333C23.1534 13.4264 23.3909 13.8932 23.5547 14.4336C23.7184 14.9659 23.8003 15.5432 23.8003 16.1655C23.8003 16.7879 23.7184 17.3693 23.5547 17.9098C23.3909 18.442 23.1534 18.9047 22.8422 19.2978C22.5392 19.6908 22.1707 20.002 21.7367 20.2313C21.3027 20.4524 20.8155 20.5629 20.275 20.5629ZM20.275 19.0398C20.5698 19.0398 20.836 18.9702 21.0734 18.831C21.3109 18.6836 21.5115 18.483 21.6753 18.2291C21.8473 17.9671 21.9742 17.66 22.0561 17.3079C22.1462 16.9558 22.1912 16.575 22.1912 16.1655C22.1912 15.7479 22.1462 15.3671 22.0561 15.0232C21.9742 14.6711 21.8473 14.3681 21.6753 14.1142C21.5115 13.8522 21.3109 13.6516 21.0734 13.5124C20.836 13.365 20.5698 13.2913 20.275 13.2913C19.972 13.2913 19.7018 13.365 19.4643 13.5124C19.2269 13.6516 19.0262 13.8522 18.8625 14.1142C18.6987 14.3681 18.5718 14.6711 18.4817 15.0232C18.3998 15.3671 18.3588 15.7479 18.3588 16.1655C18.3588 16.575 18.3998 16.9558 18.4817 17.3079C18.5718 17.66 18.6987 17.9671 18.8625 18.2291C19.0262 18.483 19.2269 18.6836 19.4643 18.831C19.7018 18.9702 19.972 19.0398 20.275 19.0398Z" fill="#010B17"/>
<path d="M24.91 20.3664V18.9047C25.3932 18.4298 25.8395 17.9876 26.2489 17.5781C26.4209 17.4062 26.5969 17.2301 26.7771 17.0499C26.9572 16.8698 27.1251 16.7019 27.2807 16.5463C27.4363 16.3907 27.5755 16.2515 27.6983 16.1287C27.8212 15.9977 27.9153 15.8953 27.9808 15.8216C28.1119 15.666 28.2265 15.5268 28.3248 15.404C28.4312 15.2812 28.5131 15.1624 28.5704 15.0478C28.6359 14.9249 28.6851 14.8062 28.7178 14.6916C28.7506 14.5687 28.767 14.4377 28.767 14.2985C28.767 14.0283 28.6605 13.7949 28.4476 13.5984C28.2347 13.3936 27.944 13.2913 27.5755 13.2913C27.207 13.2913 26.9204 13.3977 26.7157 13.6106C26.5109 13.8154 26.3717 14.0487 26.298 14.3108L24.8363 13.7089C24.9018 13.4878 25.0083 13.2626 25.1557 13.0333C25.3031 12.7958 25.4914 12.587 25.7207 12.4069C25.95 12.2185 26.2202 12.067 26.5314 11.9524C26.8508 11.8296 27.207 11.7682 27.6001 11.7682C28.0259 11.7682 28.4107 11.8337 28.7547 11.9647C29.0986 12.0875 29.3893 12.2595 29.6268 12.4806C29.8643 12.7017 30.0485 12.9637 30.1795 13.2667C30.3106 13.5615 30.3761 13.8809 30.3761 14.2248C30.3761 14.7489 30.245 15.232 29.983 15.6742C29.7291 16.1082 29.418 16.5136 29.0495 16.8903L27.9931 17.9466C27.7147 18.225 27.3994 18.5362 27.0473 18.8801L27.0964 18.9538H30.4989V20.3664H24.91Z" fill="#010B17"/>
<path d="M34.6374 20.5629C34.318 20.5629 33.9987 20.5179 33.6793 20.4278C33.3681 20.3377 33.0774 20.1985 32.8072 20.0102C32.5369 19.8219 32.2995 19.5885 32.0948 19.3101C31.8982 19.0234 31.7508 18.6836 31.6526 18.2905L33.1143 17.7255C33.2043 18.135 33.3763 18.4625 33.6302 18.7082C33.8922 18.9538 34.2238 19.0767 34.6251 19.0767C34.8216 19.0767 35.0018 19.0439 35.1656 18.9784C35.3375 18.9047 35.4849 18.8064 35.6078 18.6836C35.7388 18.5608 35.837 18.4175 35.9026 18.2537C35.9763 18.0817 36.0131 17.8934 36.0131 17.6887C36.0131 17.4921 35.9763 17.312 35.9026 17.1482C35.837 16.9762 35.7429 16.8288 35.62 16.706C35.4972 16.575 35.3498 16.4767 35.1778 16.4112C35.0141 16.3375 34.8298 16.3007 34.6251 16.3007C34.3712 16.3007 34.1461 16.358 33.9495 16.4726C33.753 16.5791 33.5851 16.7142 33.4459 16.878L31.8859 16.1655L32.3773 11.9647H37.1063V13.3773H33.7161L33.3968 15.3426L33.495 15.3671C33.6588 15.2279 33.8594 15.1092 34.0969 15.0109C34.3344 14.9127 34.621 14.8635 34.9567 14.8635C35.3089 14.8635 35.6446 14.9331 35.964 15.0723C36.2833 15.2034 36.5658 15.3917 36.8115 15.6374C37.0572 15.883 37.2537 16.1819 37.4011 16.534C37.5485 16.878 37.6222 17.2628 37.6222 17.6887C37.6222 18.1063 37.5485 18.4912 37.4011 18.8433C37.2537 19.1954 37.0449 19.4984 36.7747 19.7522C36.5126 20.0061 36.1973 20.2067 35.8289 20.3541C35.4685 20.4933 35.0714 20.5629 34.6374 20.5629Z" fill="#010B17"/>
<path fill-rule="evenodd" clip-rule="evenodd" d="M2.72961 0.771362H49.1329V26.7026H46.4033V29.4322H0V3.50097H2.72961V0.771362ZM43.6737 6.23057H2.72961V26.7026H43.6737V6.23057Z" fill="#010B17"/>
</svg>
