<svg width="124" height="102" viewBox="0 0 124 102" fill="none" xmlns="http://www.w3.org/2000/svg">
<path d="M17.5486 39.3403V48.716L15.4492 49.9327L7.32601 45.2449L17.5486 39.3403Z" stroke="#010B17" stroke-width="0.966" stroke-linecap="round" stroke-linejoin="round"/>
<path d="M90.6717 72.1325V95.9892L119.264 79.4802V55.6235L98.6039 67.5519L90.6717 72.1325Z" fill="white" stroke="#010B17" stroke-width="0.966" stroke-linecap="round" stroke-linejoin="round"/>
<path d="M66.3233 58.0669V81.9236L90.6693 95.9872V72.1305L86.9714 69.9952L78.86 65.3074L68.4107 59.2717L66.3233 58.0669Z" fill="white" stroke="#010B17" stroke-width="0.966" stroke-linecap="round" stroke-linejoin="round"/>
<path d="M25.7207 34.6276V44.051L33.8317 48.7508V39.3156L35.9312 38.0989V28.7351L33.6529 30.0472L25.7207 34.6276Z" stroke="#010B17" stroke-width="0.966" stroke-linecap="round" stroke-linejoin="round"/>
<path d="M21.4301 74.5989V98.4556L50.0223 81.9468V58.0901L37.5333 65.3067L29.3623 70.0184L21.4301 74.5989Z" fill="white" stroke="#010B17" stroke-width="0.966" stroke-linecap="round" stroke-linejoin="round"/>
<path d="M-2.92974 60.5388V84.3955L21.4277 98.4592V74.6025L17.7298 72.4672L9.63069 67.7794L-0.842276 61.7437L-2.92974 60.5388Z" fill="white" stroke="#010B17" stroke-width="0.966" stroke-linecap="round" stroke-linejoin="round"/>
<path d="M35.9351 28.7351V38.0989L41.7802 34.7349L44.0464 33.4228L35.9351 28.7351Z" fill="white" stroke="#010B17" stroke-width="0.966" stroke-linecap="round" stroke-linejoin="round"/>
<path d="M-35.3963 41.7843L-14.7484 53.7127L-11.0506 55.848L-3.1063 51.2675L-0.839912 49.9553L7.29486 54.6432L5.01667 55.9552L-0.839912 59.3311L-2.92737 60.5357L-0.839912 61.7405L9.63306 67.7763L17.7322 72.4641L21.4301 74.5994L29.3623 70.0189L37.5333 65.3071L50.0223 58.0905L35.9349 49.9553L33.8354 48.7505L25.7244 44.0509L25.6648 44.0269L17.5534 48.7148L15.454 49.9315L7.33077 45.2437L17.5534 39.3392L13.8554 37.204L1.36683 29.9991L-6.80409 25.2756L-35.3963 41.7843Z" fill="#34A853" stroke="#010B17" stroke-width="0.966" stroke-linecap="round" stroke-linejoin="round"/>
<path d="M-0.829098 49.9556V59.3314L5.02748 55.9555L7.30567 54.6435L-0.829098 49.9556Z" stroke="#010B17" stroke-width="0.966" stroke-linecap="round" stroke-linejoin="round"/>
<path d="M1.36809 20.5632V29.9984L13.8567 37.2032L17.5546 39.3385V48.7141L25.666 44.0262L25.7257 44.05V34.6266L22.0278 32.4916L1.36809 20.5632Z" fill="white" stroke="#010B17" stroke-width="0.966" stroke-linecap="round" stroke-linejoin="round"/>
<path d="M33.8428 39.3171V48.7523L35.9423 49.9571L50.0296 58.0924V72.5137L58.2007 77.2372V53.3805L54.5028 51.2455L46.3796 46.5575L35.9423 40.5338L33.8428 39.3171Z" fill="white" stroke="#010B17" stroke-width="0.966" stroke-linecap="round" stroke-linejoin="round"/>
<path d="M44.1095 24.0131L52.2209 28.701L54.3203 27.4844V18.1206L44.1095 24.0131Z" stroke="#010B17" stroke-width="0.966" stroke-linecap="round" stroke-linejoin="round"/>
<path d="M1.36424 20.5633L22.0239 32.4917L25.7218 34.6268L33.654 30.0464L35.9324 28.7343L44.0436 33.422L41.7774 34.7341L35.9324 38.098L33.8328 39.3147L35.9324 40.5314L46.3697 46.5551L54.4929 51.2431L58.1908 53.3781L66.123 48.7976L68.4131 47.4737L76.5245 52.1615L74.2344 53.4856L68.4131 56.8613L66.3257 58.0661L68.4131 59.2708L78.8624 65.3065L86.9738 69.9944L90.6717 72.1296L98.6039 67.549L119.264 55.6206L94.9182 41.5572L86.783 46.245L84.6956 47.4497L76.5722 42.762L86.783 36.8693L62.437 22.8058L54.3141 27.4818L52.2147 28.6985L44.1033 24.0105L54.3141 18.118L29.9561 4.05444L1.36424 20.5633Z" fill="#34A853" stroke="#010B17" stroke-width="0.966" stroke-linecap="round" stroke-linejoin="round"/>
<path d="M68.4229 47.4753V56.863L74.2442 53.4873L76.5343 52.1633L68.4229 47.4753Z" fill="white" stroke="#010B17" stroke-width="0.966" stroke-linecap="round" stroke-linejoin="round"/>
<path d="M58.2032 53.3799V77.2366L66.3381 72.5369V58.0677L68.4256 56.863V47.4753L66.1354 48.7994L58.2032 53.3799Z" fill="white" stroke="#010B17" stroke-width="0.966" stroke-linecap="round" stroke-linejoin="round"/>
<path d="M76.5755 42.7619L84.6988 47.4496L86.7863 46.2448V36.8691L76.5755 42.7619Z" fill="white" stroke="#010B17" stroke-width="0.966" stroke-linecap="round" stroke-linejoin="round"/>
</svg>
