<svg width="24" height="24" viewBox="0 0 24 24" fill="none" xmlns="http://www.w3.org/2000/svg">
<path fill-rule="evenodd" clip-rule="evenodd" d="M14.3136 1.09534C13.1135 -0.362837 10.8808 -0.362835 9.68082 1.09535L9.29321 1.56634C8.65838 2.33773 7.68121 2.74249 6.68686 2.64593L6.07973 2.58696C4.2001 2.40442 2.62134 3.98318 2.80388 5.86281L2.86284 6.46994C2.95941 7.46429 2.55465 8.44147 1.78326 9.07629L1.31226 9.4639C-0.145918 10.6639 -0.145916 12.8966 1.31226 14.0967L1.78326 14.4843C2.55465 15.1191 2.95941 16.0963 2.86284 17.0906L2.80388 17.6977C2.62134 19.5774 4.20009 21.1561 6.07973 20.9736L6.68686 20.9146C7.68121 20.8181 8.65838 21.2228 9.29321 21.9942L9.68082 22.4652C10.8808 23.9234 13.1135 23.9234 14.3136 22.4652L14.7012 21.9942C15.336 21.2228 16.3132 20.8181 17.3075 20.9146L17.9147 20.9736C19.7943 21.1561 21.3731 19.5774 21.1905 17.6977L21.1315 17.0906C21.035 16.0963 21.4397 15.1191 22.2111 14.4843L22.6821 14.0966C24.1403 12.8966 24.1403 10.6639 22.6821 9.4639L22.2111 9.07629C21.4397 8.44146 21.035 7.46429 21.1315 6.46994L21.1905 5.86281C21.3731 3.98318 19.7943 2.40442 17.9147 2.58696L17.3075 2.64593C16.3132 2.74249 15.336 2.33773 14.7012 1.56634L14.3136 1.09534ZM12.6826 3.57422C12.4188 2.98007 11.5756 2.98007 11.3117 3.57423L10.1972 6.08427C10.0351 6.44942 9.61514 6.62336 9.24229 6.47981L6.67932 5.49304C6.07263 5.25946 5.47638 5.85572 5.70996 6.4624L6.69673 9.02538C6.84028 9.39822 6.66634 9.81815 6.30119 9.98029L3.79114 11.0948C3.19698 11.3587 3.19699 12.2019 3.79114 12.4657L6.30119 13.5803C6.66634 13.7424 6.84028 14.1623 6.69673 14.5352L5.70996 17.0981C5.47638 17.7048 6.07264 18.3011 6.67932 18.0675L9.2423 17.0807C9.61514 16.9372 10.0351 17.1111 10.1972 17.4763L11.3118 19.9863C11.5756 20.5805 12.4188 20.5805 12.6826 19.9863L13.7972 17.4763C13.9593 17.1111 14.3792 16.9372 14.7521 17.0807L17.3151 18.0675C17.9218 18.3011 18.518 17.7048 18.2844 17.0981L17.2977 14.5352C17.1541 14.1623 17.3281 13.7424 17.6932 13.5803L20.2032 12.4657C20.7974 12.2019 20.7974 11.3587 20.2032 11.0948L17.6932 9.98029C17.3281 9.81815 17.1541 9.39822 17.2977 9.02538L18.2844 6.4624C18.518 5.85572 17.9218 5.25946 17.3151 5.49304L14.7521 6.47981C14.3792 6.62336 13.9593 6.44942 13.7972 6.08427L12.6826 3.57422Z" fill="white"/>
</svg>
