<svg width="20" height="21" viewBox="0 0 20 21" fill="none" xmlns="http://www.w3.org/2000/svg">
<path fill-rule="evenodd" clip-rule="evenodd" d="M11.9666 1.09939C10.9478 -0.138601 9.05222 -0.1386 8.0334 1.0994L7.70432 1.49927C7.16535 2.15418 6.33573 2.49782 5.49152 2.41584L4.97607 2.36578C3.38027 2.2108 2.0399 3.55116 2.19488 5.14697L2.24494 5.66242C2.32693 6.50663 1.98328 7.33625 1.32837 7.87522L0.928496 8.2043C-0.3095 9.22311 -0.309498 11.1187 0.928497 12.1375L1.32837 12.4666C1.98328 13.0055 2.32693 13.8352 2.24494 14.6794L2.19488 15.1948C2.0399 16.7906 3.38026 18.131 4.97607 17.976L5.49152 17.926C6.33573 17.844 7.16535 18.1876 7.70432 18.8425L8.0334 19.2424C9.05222 20.4804 10.9478 20.4804 11.9666 19.2424L12.2957 18.8425C12.8346 18.1876 13.6643 17.844 14.5085 17.926L15.0239 17.976C16.6197 18.131 17.9601 16.7906 17.8051 15.1948L17.7551 14.6794C17.6731 13.8352 18.0167 13.0055 18.6716 12.4666L19.0715 12.1375C20.3095 11.1187 20.3095 9.22311 19.0715 8.2043L18.6716 7.87522C18.0167 7.33625 17.6731 6.50663 17.7551 5.66242L17.8051 5.14697C17.9601 3.55116 16.6197 2.2108 15.0239 2.36578L14.5085 2.41584C13.6643 2.49782 12.8346 2.15418 12.2957 1.49927L11.9666 1.09939ZM10.5819 3.20396C10.358 2.69952 9.64205 2.69952 9.41806 3.20396L8.47181 5.33499C8.33416 5.645 7.97764 5.79268 7.66109 5.6708L5.48513 4.83304C4.97005 4.63473 4.46383 5.14095 4.66214 5.65603L5.4999 7.83199C5.62178 8.14854 5.4741 8.50505 5.16409 8.64271L3.03306 9.58896C2.52862 9.81294 2.52862 10.5289 3.03307 10.7528L5.16409 11.6991C5.4741 11.8367 5.62178 12.1933 5.4999 12.5098L4.66214 14.6858C4.46383 15.2008 4.97005 15.7071 5.48513 15.5088L7.66109 14.671C7.97764 14.5491 8.33416 14.6968 8.47181 15.0068L9.41806 17.1378C9.64205 17.6423 10.358 17.6423 10.5819 17.1378L11.5282 15.0068C11.6658 14.6968 12.0224 14.5491 12.3389 14.671L14.5149 15.5088C15.0299 15.7071 15.5362 15.2008 15.3379 14.6858L14.5001 12.5098C14.3782 12.1933 14.5259 11.8367 14.8359 11.6991L16.9669 10.7528C17.4714 10.5289 17.4714 9.81295 16.9669 9.58896L14.8359 8.64271C14.5259 8.50505 14.3782 8.14854 14.5001 7.83199L15.3379 5.65603C15.5362 5.14095 15.0299 4.63473 14.5149 4.83304L12.3389 5.6708C12.0224 5.79268 11.6658 5.645 11.5282 5.33499L10.5819 3.20396Z" fill="#FAAB00"/>
</svg>
