<svg width="24" height="24" viewBox="0 0 24 24" fill="none" xmlns="http://www.w3.org/2000/svg">
<path d="M7.03085 0.0654297H16.9689C20.7548 0.0654297 23.8309 3.1415 23.8309 6.92742V16.8655C23.8309 18.6854 23.1079 20.4308 21.8211 21.7176C20.5342 23.0045 18.7888 23.7275 16.9689 23.7275H7.03085C3.24492 23.7275 0.168854 20.6514 0.168854 16.8655V6.92742C0.168854 5.10751 0.891812 3.36214 2.17869 2.07526C3.46556 0.788388 5.21093 0.0654297 7.03085 0.0654297ZM6.79423 2.43163C5.66463 2.43163 4.58129 2.88037 3.78254 3.67912C2.98379 4.47787 2.53506 5.5612 2.53506 6.6908V17.1021C2.53506 19.4565 4.43985 21.3613 6.79423 21.3613H17.2055C18.3351 21.3613 19.4185 20.9125 20.2172 20.1138C21.016 19.315 21.4647 18.2317 21.4647 17.1021V6.6908C21.4647 4.33643 19.5599 2.43163 17.2055 2.43163H6.79423ZM18.2112 4.20629C18.6034 4.20629 18.9796 4.3621 19.2569 4.63944C19.5342 4.91679 19.69 5.29294 19.69 5.68517C19.69 6.07739 19.5342 6.45355 19.2569 6.73089C18.9796 7.00824 18.6034 7.16404 18.2112 7.16404C17.8189 7.16404 17.4428 7.00824 17.1654 6.73089C16.8881 6.45355 16.7323 6.07739 16.7323 5.68517C16.7323 5.29294 16.8881 4.91679 17.1654 4.63944C17.4428 4.3621 17.8189 4.20629 18.2112 4.20629ZM11.9999 5.98094C13.5688 5.98094 15.0734 6.60418 16.1828 7.71356C17.2922 8.82293 17.9154 10.3276 17.9154 11.8965C17.9154 13.4653 17.2922 14.97 16.1828 16.0794C15.0734 17.1887 13.5688 17.812 11.9999 17.812C10.431 17.812 8.92635 17.1887 7.81698 16.0794C6.70761 14.97 6.08437 13.4653 6.08437 11.8965C6.08437 10.3276 6.70761 8.82293 7.81698 7.71356C8.92635 6.60418 10.431 5.98094 11.9999 5.98094ZM11.9999 8.34715C11.0585 8.34715 10.1558 8.72109 9.49014 9.38671C8.82452 10.0523 8.45057 10.9551 8.45057 11.8965C8.45057 12.8378 8.82452 13.7406 9.49014 14.4062C10.1558 15.0718 11.0585 15.4458 11.9999 15.4458C12.9412 15.4458 13.844 15.0718 14.5096 14.4062C15.1752 13.7406 15.5492 12.8378 15.5492 11.8965C15.5492 10.9551 15.1752 10.0523 14.5096 9.38671C13.844 8.72109 12.9412 8.34715 11.9999 8.34715Z" fill="#676C72"/>
</svg>
