<svg width="24" height="22" viewBox="0 0 24 22" fill="none" xmlns="http://www.w3.org/2000/svg">
<path d="M5.53951 2.71694C5.5392 3.33671 5.2927 3.93098 4.85423 4.36901C4.41577 4.80703 3.82125 5.05294 3.20148 5.05263C2.5817 5.05232 1.98744 4.80582 1.54941 4.36735C1.11138 3.92889 0.865474 3.33438 0.865784 2.7146C0.866094 2.09483 1.1126 1.50056 1.55106 1.06253C1.98953 0.624504 2.58404 0.378597 3.20381 0.378907C3.82359 0.379216 4.41786 0.625718 4.85588 1.06418C5.29391 1.50265 5.53982 2.09716 5.53951 2.71694ZM5.60962 6.78308H0.93589V21.4118H5.60962V6.78308ZM12.9941 6.78308H8.34374V21.4118H12.9474V13.7352C12.9474 9.45879 18.5208 9.06152 18.5208 13.7352V21.4118H23.1361V12.1462C23.1361 4.93696 14.887 5.2057 12.9474 8.74604L12.9941 6.78308Z" fill="#676C72"/>
</svg>
